/* XPM */
static char * arrowright_blue_xpm[] = {
"16 12 32 1",
" 	c None",
".	c #000000",
"+	c #000002",
"@	c #CCCEFE",
"#	c #000200",
"$	c #D0CEFF",
"%	c #9C9CFE",
"&	c #000100",
"*	c #9D9CFF",
"=	c #9B9EFF",
"-	c #010000",
";	c #CDCEFE",
">	c #9D9DFF",
",	c #9C9DFA",
"'	c #6561D0",
")	c #CECEFF",
"!	c #9B9AFF",
"~	c #6164CF",
"{	c #010101",
"]	c #8C8C8C",
"^	c #BDBDBD",
"/	c #6164CB",
"(	c #020003",
"_	c #8B8D8C",
":	c #9D9BFF",
"<	c #8C8A8B",
"[	c #000201",
"}	c #BFBEBC",
"|	c #010100",
"1	c #8C8C8A",
"2	c #BDBFBE",
"3	c #BDBDBF",
".               ",
"+.              ",
".@#             ",
".$%+            ",
"&$*=-           ",
"&;>,'.          ",
".)!~{]^         ",
"+)/(_^          ",
".:{<^           ",
"&[]}            ",
"|12             ",
" 3              "};
