/* XPM */
static char * document_xpm[] = {
"16 12 10 1",
" 	c None",
".	c #414141",
"+	c #000000",
"@	c #202020",
"#	c #A2A2A2",
"$	c #616161",
"%	c #FFFFFF",
"&	c #DFDFDF",
"*	c #C2C2C2",
"=	c #828282",
".++++@.#        ",
"$%%&*$*.=       ",
"$%%%%#=*.#      ",
"$%%%%%$%*.      ",
"$%%%%%$$$@      ",
"$%%%%%%%%+      ",
"$%%%%%%%%+      ",
"$%%%%%%%%+      ",
"$%%%%%%%%+      ",
"$%%%%%%%%+      ",
"$%%%%%%%%+      ",
"$$$$$$$$$.      "};
