/* XPM */
static char * AbiWord_xpm[] = {
"16 15 23 1",
".	c #000000",
"#	c #0000FF",
"a	c #202020",
"b	c #3030FF",
"c	c #404040",
"d	c #606060",
"e	c #6161FF",
"f	c #7070FF",
"g	c #808080",
"h	c #8080FF",
"i	c #9696FF",
"j	c #A0A0A0",
"k	c #A2A2FF",
"l	c #A8A8FF",
"m	c #C0C0C0",
"n	c #C5C5FF",
"o	c #D1D1FF",
"p	c #D8D8FF",
"q	c #DEDEDE",
"r	c #E1E1FF",
"s	c #EFEFFF",
"t	c None",
"u	c #FFFFFF",
"tdddddddddddddct",
"tduuuuuuuuuuuu.t",
"tduuuuuuuuuuuu.t",
"tduuuuueeuuuuu.t",
"tduuuuf##fuuuu.t",
"tduuuo#uu#suuu.t",
"tduuuefuufhuuu.t",
"tduur#uuuu#uuu.t",
"tduuhfuunukluu.t",
"tduu#nkepuuiuu.t",
"tduub#kuuuudddat",
"tduuuuuuuuudumct",
"tduuuuuuuujgmcjt",
"tduuuuuuqmdmcgtt",
"tc........acjttt"};
