/* XPM */
static char * aiff_xpm[] = {
"16 15 30 1",
" 	c None",
"!	c #D4D5D4",
"#	c #DEDEDE",
"$	c #FFFFFF",
"%	c #000000",
"&	c #CECECE",
"/	c #EFF7BE",
"(	c #E7E7E7",
")	c #CACE9A",
"=	c #354500",
"+	c #9AAE5D",
"*	c #96A655",
"-	c #DBE3AA",
"[	c #8AA629",
"]	c #E7F3E7",
"{	c #617D01",
"}	c #8EAA2D",
"<	c #5D7900",
">	c #5D632D",
",	c #557100",
".	c #829E24",
"|	c #516900",
"@	c #8EAA31",
"~	c #597100",
"'	c #929A61",
"?	c #A2A671",
"0	c #B6BE86",
"1	c #394108",
"2	c #F7F7F7",
"3	c #C6C6C6",
"       !        ",
"      #$#       ",
"     #$%$!      ",
"    !$$%$#   &  ",
"   !$%/%$$(!#$# ",
"  !$$%)=)%$$$%$!",
"($$%/=+=*%-%-=$(",
"$[]{}<[<[>[,[{]$",
"==%.|@~}~'|}>}[=",
"$${/%-=?=0%-1-[$",
"!#($%$%)=-$/%$$!",
"  &!$$%/%$2$%$! ",
"    !($$%$##$!  ",
"     3!$%$! &   ",
"       !$!      "};
