/* XPM */
static char * Amiga_xpm[] = {
"16 15 29 1",
".	c None",
"m	c #2D2DFF",
"f	c #DF9E7D",
"g	c #FF7D00",
"r	c #14967D",
"z	c #69AA9E",
"A	c #61DF61",
"w	c #00FF00",
"u	c #8EBE00",
"d	c #828282",
"j	c #BEBE00",
"s	c #BEDF61",
"e	c #A2A2A2",
"o	c #DFDF61",
"t	c #BEFF00",
"n	c #5555BE",
"y	c #41BE41",
"i	c #FFFF00",
"h	c #BE5D00",
"p	c #2020BE",
"b	c #DF6161",
"c	c #BE0000",
"k	c #BEBE41",
"q	c #FFFF7D",
"v	c #10715D",
"l	c #7575DF",
"#	c #FF0000",
"x	c #00BE00",
"a	c #DB514D",
"...........#a#a.",
"..........b#c#d.",
"..........#c#ae.",
".........b#c#d..",
".........#c#ae..",
"........fghgd...",
"........ijike...",
".lmnme.oijid....",
"..mpmneqjike....",
"..lmprstutd.....",
"...rvrwxwye.....",
"...zrvwxwd......",
"....rwxwye......",
"....Awywd.......",
".....edde......."};
