/* XPM */
static char * Apple_xpm[] = {
"16 15 70 1",
" 	c None",
"!	c #65EF59",
"#	c #00AE00",
"$	c #008600",
"%	c #A2A2A2",
"&	c #828282",
"/	c #01BB00",
"(	c #008A00",
")	c #CEFF9A",
"=	c #18C614",
"+	c #009200",
"*	c #107910",
"-	c #FFCE31",
"[	c #FFEFC2",
"]	c #FFFFFF",
"{	c #FFFF00",
"}	c #FFEF08",
"<	c #FFD224",
">	c #FFC22D",
",	c #FFA631",
".	c #CA8E2D",
"|	c #9A6531",
"@	c #616161",
"~	c #FFFBF3",
"'	c #FFFFB6",
"?	c #EF9A2D",
"0	c #B67939",
"1	c #CE6900",
"2	c #FFF3C2",
"3	c #FF6500",
"4	c #EF6500",
"5	c #D76500",
"6	c #CE6D0C",
"7	c #CE6500",
"8	c #FFCA96",
"9	c #CE5908",
"A	c #A65524",
"B	c #BC0000",
"C	c #FF9ACA",
"D	c #DE0000",
"E	c #CE0000",
"F	c #AA0000",
"G	c #860000",
"H	c #650000",
"I	c #C679AE",
"J	c #CA319A",
"K	c #F3089A",
"L	c #F7019A",
"M	c #FB009A",
"N	c #E71096",
"O	c #CA2896",
"P	c #B22D92",
"Q	c #8C3182",
"R	c #653165",
"S	c #DB1C9A",
"T	c #F30896",
"U	c #DB1C96",
"V	c #C22896",
"W	c #A22D8E",
"X	c #9A319A",
"Y	c #9292BA",
"Z	c #0000AA",
"a	c #1C3DB6",
"b	c #203DAE",
"c	c #18248E",
"d	c #1C419A",
"e	c #2449B2",
"f	c #1C3DAE",
"g	c #00008A",
"h	c #414141",
"        !#      ",
"       !#$%     ",
"       #$&%     ",
"   #/( %&#/(    ",
"  ()!=//#+$*&   ",
" -[]{{}<>,.|@%  ",
" -~'{{}<>?0@&%  ",
" 123333456|&%   ",
" 783333349A|%   ",
" BCDDDDDEBFGH%  ",
" IJKLLMLNOPQR&  ",
"  JSKKLTUVWQX@  ",
"  YZabccdefg@&  ",
"   Yggh@&gg@&%  ",
"    %&&% %&%%   "};
