/* XPM */
static char * au_xpm[] = {
"16 15 27 1",
" 	c None",
"!	c #D4D5D4",
"#	c #DEDEDE",
"$	c #FFFFFF",
"%	c #000000",
"&	c #CECECE",
"/	c #FFE3F3",
"(	c #E7E7E7",
")	c #FFA6D7",
"=	c #711845",
"+	c #DB7DAE",
"*	c #D275A6",
"-	c #FFC6E3",
"[	c #C66D9A",
"]	c #A24575",
"{	c #CE71A2",
"}	c #9E4171",
"<	c #963B69",
">	c #CA6D9E",
",	c #A24975",
".	c #C26596",
"|	c #923565",
"@	c #9A3D6D",
"~	c #CA719E",
"'	c #EF96C2",
"?	c #F7F7F7",
"0	c #C6C6C6",
"       !        ",
"      #$#       ",
"     #$%$!      ",
"    !$$%$#   &  ",
"   !$%/%$$(!#$# ",
"  !$$%)=)%$$$%$!",
"($$%/=+=*%-%-=$(",
"$[/]{}[}[<><>,/$",
"==%.|{@{<~|{<{[=",
"$$]/%-=+='%-=-[$",
"!#($%$%)=-$/%$$!",
"  &!$$%/%$?$%$! ",
"    !($$%$##$!  ",
"     0!$%$! &   ",
"       !$!      "};
