/* XPM */
static char * avi2_xpm[] = {
"16 15 37 1",
".	c #000000",
"#	c None",
"a	c #404040",
"b	c #800000",
"c	c #808080",
"d	c #980C00",
"e	c #9D3A2D",
"f	c #9C563E",
"g	c #A02000",
"h	c #A03D30",
"i	c #A35C44",
"j	c #A34032",
"k	c #AB634A",
"l	c #AE6F5C",
"m	c #B01800",
"n	c #B0684F",
"o	c #B5391D",
"p	c #B66C53",
"q	c #B93D21",
"r	c #BA7057",
"s	c #BD735A",
"t	c #C02000",
"u	c #C06250",
"v	c #C0755C",
"w	c #C4795F",
"x	c #C57B61",
"y	c #C87C64",
"z	c #CC8066",
"A	c #CE8369",
"B	c #D1856B",
"C	c #D68A6F",
"D	c #D7735F",
"E	c #D78B70",
"F	c #DF8F7F",
"G	c #EFC7BF",
"H	c #F7E3DF",
"I	c #FFFFFF",
"##.#a........a#.",
"##...ffiiikkn...",
"##.#afiiikknpa#.",
"#uteetototqpp...",
"uFIFgItIbIgpsa#.",
"tIbIbGFGdIbss...",
"tIIIbDHDmIbsva#.",
"tIbIbtIbtIb.....",
"ugegeegehgjxya#.",
"##...prsvwxyz...",
"##.#arsvxxyABac.",
"##...svxyzBB...a",
"##.#avxyzBBEl.a#",
"##...xyzABCc..c#",
"##.#a.......a###"};
