/* XPM */
static char * Battery2_xpm[] = {
"16 15 48 1",
".	c #000000",
"#	c None",
"a	c #0F0F0F",
"b	c #171717",
"c	c #1D1D1D",
"d	c #202020",
"e	c #2C2C2C",
"f	c #303030",
"g	c #3C3C3C",
"h	c #404040",
"i	c #592714",
"j	c #606060",
"k	c #723118",
"l	c #803A1F",
"m	c #808080",
"n	c #8A8A8A",
"o	c #999999",
"p	c #A0A0A0",
"q	c #A34B28",
"r	c #A65231",
"s	c #A9A9A9",
"t	c #AD5533",
"u	c #AE694E",
"v	c #B68775",
"w	c #B7B7B7",
"x	c #C4633B",
"y	c #C2C2C2",
"z	c #C5907C",
"A	c #C66A45",
"B	c #C96037",
"C	c #C96941",
"D	c #D17953",
"E	c #D38465",
"F	c #D97046",
"G	c #DDDDDD",
"H	c #DE784D",
"I	c #DE855D",
"J	c #E18962",
"K	c #E88A5F",
"L	c #E88A60",
"M	c #EB936A",
"N	c #EFA483",
"O	c #EFA77D",
"P	c #F1B28E",
"Q	c #F3BD9F",
"R	c #F5C8AF",
"S	c #F7D3BF",
"T	c #FFFFFF",
"#####yTGps######",
"#####pwyom######",
"###zENRNJDuv####",
"###BFMSMHCrk####",
"###BFLQLHxqk####",
"###BFLPKHxqk####",
"###BFLOKHxqk####",
"###BFLOKHxqk####",
"###tAIOKHxli####",
"###dfhjhfda.####",
"###dfhjhfda.####",
"###dfhjhfda.####",
"###dfhjhfda.####",
"###ddfhfeca.####",
"###ngedcbegn####"};
