/* XPM */
static char * bmp_xpm[] = {
"16 15 11 1",
".	c #000000",
"#	c None",
"a	c #201810",
"b	c #403020",
"c	c #555555",
"d	c #806040",
"e	c #999999",
"f	c #AAAAAA",
"g	c #BFAF9F",
"h	c #DFDFDF",
"i	c #FFFFFF",
"################",
"##ihhhhhhhhhhf##",
"##heeeeeeeeeec##",
"bbbbbbbbbbbbbbba",
"bdddddddddddddd.",
"biigdidddidiigd.",
"bididiidiididid.",
"biigdigigidiigd.",
"bidididgdididdd.",
"biigdidddididdd.",
"bdddddddddddddd.",
"a...............",
"##heeeeeeeeeec##",
"##fccccccccccc##",
"################"};
