/* XPM */
static char * _bmp2_xpm[] = {
"16 15 55 1",
".	c #000010",
"#	c None",
"a	c #0F0600",
"b	c #130800",
"c	c #1C0B00",
"d	c #222232",
"e	c #2D2216",
"f	c #302418",
"g	c #334455",
"h	c #381700",
"i	c #3F3F4F",
"j	c #413120",
"k	c #441100",
"l	c #4F3C27",
"m	c #503C28",
"n	c #555565",
"o	c #582400",
"p	c #604830",
"q	c #652900",
"r	c #7799AA",
"s	c #7B3607",
"t	c #806040",
"u	c #856950",
"v	c #875834",
"w	c #876649",
"x	c #8A694C",
"y	c #8C4718",
"z	c #99AACC",
"A	c #9B5627",
"B	c #A7A7B7",
"C	c #AC6738",
"D	c #B08868",
"E	c #BD7849",
"F	c #BFAF9F",
"G	c #CCCCEE",
"H	c #CDBAAD",
"I	c #CDC1B9",
"J	c #D08B5C",
"K	c #D9CBC1",
"L	c #DA9566",
"M	c #DC9A6E",
"N	c #E4C2AA",
"O	c #EBA677",
"P	c #ECA778",
"Q	c #ECC3A7",
"R	c #EEAD81",
"S	c #F2B184",
"T	c #F0F0FF",
"U	c #F3C3A1",
"V	c #F3B68C",
"W	c #F5F0F0",
"X	c #FEC39A",
"Y	c #FFE0D5",
"Z	c #FFE2CE",
"0	c #FFFFFF",
"QVOOPPOOOOVVXN##",
"JAqhhhqsyCJORVXN",
"OCbabbcchosCJMVX",
"QXEboHKGTrdkoAOS",
"#UXssKWn...iyoyO",
"#QXJyLWid.diWCoJ",
"#IUXOLYzdggBWOEO",
"##NXXOSZZWWWOOVX",
"eppuDpXOJpvppwXX",
"p00Ft0pXp0m00Fx#",
"p0t0j00p00j0t0j#",
"p00Ft0F0F0j00Fj#",
"p0t0j0jFp0j0jj##",
"p00Ft0ljp0j0je##",
"emjjeme#ememf###"};
