/* XPM */
static char * BSD_xpm[] = {
"16 15 30 1",
" 	c None",
"!	c #A62420",
"#	c #612028",
"$	c #792820",
"%	c #927175",
"&	c #592D31",
"/	c #C28686",
"(	c #DFE7EF",
")	c #281820",
"=	c #82454D",
"+	c #614141",
"*	c #616161",
"-	c #E3C2C2",
"[	c #6D2024",
"]	c #A61410",
"{	c #8E2418",
"}	c #000000",
"<	c #A26561",
">	c #412431",
",	c #8A4949",
".	c #AE9A9A",
"|	c #49181C",
"@	c #521C24",
"~	c #6D2018",
"'	c #751C1C",
"?	c #351820",
"0	c #796979",
"1	c #392431",
"2	c #9E9E9E",
"3	c #181410",
"      !     #   ",
"     ! !$$% %#  ",
"     !$$!$&#!%  ",
"     !//(!$#)   ",
"  ) =#+*-![#%   ",
" ) )]{#}<!#>    ",
"! )),{{{{$)%    ",
" !)) .###))     ",
"    )]]||]@     ",
"     ]{)]~)     ",
"     ))]'))     ",
"      )))@)     ",
"       ]@?)%]]]%",
"   ((01@})@]%  )",
"    1((2003   ))"};
