/* XPM */
static char * cd_rom2_xpm[] = {
"16 15 107 2",
"..	c None",
".#	c #434831",
".a	c #434A16",
".b	c #45423D",
".c	c #444B2F",
".d	c #464B19",
".e	c #494D1C",
".f	c #4A4D23",
".g	c #495031",
".h	c #4A4F35",
".i	c #4B501E",
".j	c #4B5020",
".k	c #4B502B",
".l	c #4C463E",
".m	c #513834",
".n	c #514B43",
".o	c #525522",
".p	c #51622C",
".q	c #523637",
".r	c #554B38",
".s	c #565A25",
".t	c #565E29",
".u	c #57512E",
".v	c #595138",
".w	c #5C622C",
".x	c #5A4C34",
".y	c #5B5C26",
".z	c #5A6241",
".A	c #5A6E3B",
".B	c #5C5E29",
".C	c #5E6533",
".D	c #625647",
".E	c #636836",
".F	c #645D35",
".G	c #646238",
".H	c #666666",
".I	c #67682F",
".J	c #686868",
".K	c #696229",
".L	c #6A6B31",
".M	c #6B6B3C",
".N	c #747474",
".O	c #727237",
".P	c #747338",
".Q	c #756A4D",
".R	c #756B30",
".S	c #786D54",
".T	c #7B7546",
".U	c #7C7B3F",
".V	c #7F7458",
".W	c #82793B",
".X	c #847E70",
".Y	c #876E51",
".Z	c #898646",
".0	c #8A8C47",
".1	c #8E9149",
".2	c #8F8F8F",
".3	c #90866B",
".4	c #908D4D",
".5	c #928465",
".6	c #938C81",
".7	c #999999",
".8	c #9C9C5B",
".9	c #9B9B87",
"#.	c #9C8664",
"##	c #9C988C",
"#a	c #9FA055",
"#b	c #A08D7B",
"#c	c #A0A0A0",
"#d	c #A1A868",
"#e	c #A1CC9D",
"#f	c #A3975E",
"#g	c #A3B066",
"#h	c #A49C59",
"#i	c #A4C4A2",
"#j	c #A5A39E",
"#k	c #A5AB66",
"#l	c #A5AC59",
"#m	c #A6BE79",
"#n	c #A6C19F",
"#o	c #A78E64",
"#p	c #A7C0B9",
"#q	c #ABABAB",
"#r	c #AAB562",
"#s	c #B0AD61",
"#t	c #B3A276",
"#u	c #B3AA72",
"#v	c #B9B9B9",
"#w	c #BAA369",
"#x	c #BCB6A5",
"#y	c #BFB9AF",
"#z	c #C2C2C2",
"#A	c #C2C7A8",
"#B	c #C6B6A8",
"#C	c #C9C3B9",
"#D	c #CC8F7C",
"#E	c #CC9577",
"#F	c #CDCDCD",
"#G	c #D18C7C",
"#H	c #D2D2D2",
"#I	c #DDDDDD",
"#J	c #DE9E8E",
"#K	c #E4E4E4",
"#L	c #E799A0",
"#M	c #EAEAEA",
"#N	c #F0F0F0",
"#O	c #FEFEFE",
"........#H#M#M#K#I#F#z..........",
"......#N#y.V.G.a.G.S###v........",
"....#O.3.e.a.a.a.d.e.s.5#q......",
"..#N.3.w.j.d.a.a.d.i.L.1#u#c....",
"#H#C.C.w.t.i.m.q.m.w.0#l#r.9#q..",
"#M#b.M.E.C.h#v#F#H.z#g#m#e#p.2..",
"#M#..T.T.p#v#O#I#O#H.A#i#n#A.N..",
"#K.8.8#f.f#F#I#z#I#O.f#d#d#k.H..",
"#I#J#D#G.u#H#O#I#O#H.f.Z.4#o.H..",
"#F#L#E#w#h.C#H#O#H.k.y.R.W.Y.N..",
"#z#B#s#a.Z.P.g.#.c.j.j.o.K.D.7..",
"..#x#t.0.U.L.B.o.j.j.j.j.x.l....",
"....#j.5.O.I.y.o.j.j.j.r.b......",
".......6.X.Q.G.o.F.v.n.b........",
"........#q.2.N.H.J.N.7.........."};
