/* XPM */
static char * class2_xpm[] = {
"16 15 78 2",
"..	c None",
".#	c #4637B4",
".a	c #4B3DB5",
".b	c #4B409E",
".c	c #4E41B8",
".d	c #4F4693",
".e	c #50459F",
".f	c #5244BA",
".g	c #52489A",
".h	c #5649BB",
".i	c #564CA4",
".j	c #564D97",
".k	c #5A5392",
".l	c #5D549B",
".m	c #5B548D",
".n	c #625B93",
".o	c #605A8F",
".p	c #6156B8",
".q	c #6159A1",
".r	c #645AAC",
".s	c #6B64A4",
".t	c #6B6693",
".u	c #6E63C2",
".v	c #6E6994",
".w	c #716C94",
".x	c #774A90",
".y	c #7772A1",
".z	c #793474",
".A	c #7970BE",
".B	c #7B73B7",
".C	c #7D4B95",
".D	c #7D7998",
".E	c #81547A",
".F	c #847ACE",
".G	c #8B75C3",
".H	c #8F2C73",
".I	c #9164AE",
".J	c #983156",
".K	c #9A5CA1",
".L	c #9F2F3B",
".M	c #9F4E59",
".N	c #A03743",
".O	c #A13A46",
".P	c #A04A54",
".Q	c #A36E74",
".R	c #A37177",
".S	c #A4404B",
".T	c #AA1A2A",
".U	c #A87C81",
".V	c #A92433",
".W	c #A98589",
".X	c #AC2761",
".Y	c #AC2C3A",
".Z	c #AD1728",
".0	c #AD303E",
".1	c #AE5A63",
".2	c #B02333",
".3	c #B43D4A",
".4	c #B71326",
".5	c #B71E2F",
".6	c #BB4451",
".7	c #B92738",
".8	c #B93644",
".9	c #BA1A2C",
"#.	c #BC2D3D",
"##	c #BC2032",
"#a	c #BC2241",
"#b	c #BC414F",
"#c	c #C20D22",
"#d	c #C23661",
"#e	c #C93143",
"#f	c #CB3A4B",
"#g	c #CB5866",
"#h	c #D41D32",
"#i	c #DD6A77",
"#j	c #DE2E42",
"#k	c #E0152C",
"#l	c #E53F52",
".............P#l#l#l............",
".......Y.T.N.3.......6..........",
".....S.9...7.1.W....#i..........",
".....5.T...Y.0#....4#i.R........",
".....V.Z.L#f#c#k#g.8.T..........",
".....V..#.#h#h.6#e.Q.V..........",
".......2.O#j#b##.P...O..........",
".........M..#d#a#..U............",
".......g.a.G.K.X.E.J.l.a.a.d....",
".......a.a.C.I.z.H.x.a.k.g.a....",
".........p.a.a.a.a.y...s.a.n....",
".........a.i.g.A.F.B...r.t......",
"...........a.a.a.c..............",
"...q.e.s.v.o.j.l.n.t.w.n.l.D....",
".....m.b.f.#.a.a.a.h.u.k.t......"};
