/* XPM */
static char * conf_xpm[] = {
"16 15 66 1",
" 	c None",
"!	c #616161",
"#	c #414141",
"$	c #FFFFFF",
"%	c #000000",
"&	c #EBEBD7",
"/	c #1A1A0C",
"(	c #3B3B21",
")	c #33331C",
"=	c #9E9E9A",
"+	c #EFEBB2",
"*	c #656339",
"-	c #DFDC8C",
"[	c #656141",
"]	c #121208",
"{	c #5D594D",
"}	c #A2A29E",
"<	c #A6A269",
">	c #F7F3BA",
",	c #EFEBA6",
".	c #EBE396",
"|	c #8A8651",
"@	c #9A9A94",
"~	c #DBD78E",
"'	c #F3EFB2",
"?	c #EBE79E",
"0	c #DBD27D",
"1	c #CECA71",
"2	c #CAC671",
"3	c #615D35",
"4	c #969692",
"5	c #D7CE7D",
"6	c #828245",
"7	c #414124",
"8	c #BCB661",
"9	c #B6AE55",
"A	c #5B5A33",
"B	c #717169",
"C	c #D7D7AE",
"D	c #D7D27D",
"E	c #71713D",
"F	c #2D2D18",
"G	c #9A964D",
"H	c #96964D",
"I	c #222210",
"J	c #C6C269",
"K	c #AAA251",
"L	c #8E8E4D",
"M	c #797949",
"N	c #6D6D41",
"O	c #51512D",
"P	c #828275",
"Q	c #A6A251",
"R	c #A29E59",
"S	c #7D7D45",
"T	c #4B4B2A",
"U	c #737345",
"V	c #69693D",
"W	c #514D2D",
"X	c #202020",
"Y	c #D2D2CA",
"Z	c #414131",
"a	c #C2C2C2",
"b	c #A2A2A2",
"c	c #828282",
"d	c #DFDFDF",
" !!!!!!!!!!!!!# ",
" !$$$$$$$$$$$$% ",
" !$$$&/(()=$$$% ",
" !$$&+*-[]{}$$% ",
" !$$<>,.|)/]@$% ",
" !$~'?-0123]4$% ",
" !$&5-6789A]B$% ",
" !$CD1EFGHAI($% ",
" !$CJ8K/LMNOP$% ",
" !$&CQGRS*TI@$% ",
" !$$&UUVAW)!!!X ",
" !$$$Y=T7Z$!$a# ",
" !$$$$$$$$bca#b ",
" !$$$$$$da!a#c  ",
" #%%%%%%%%X#b   "};
