/* XPM */
static char * core_xpm[] = {
"16 15 8 1",
".	c None",
"d	c #828282",
"b	c #414141",
"c	c #000000",
"e	c #616161",
"f	c #202020",
"a	c #FFFF00",
"#	c #FF6D00",
"...........#....",
".......#........",
".........#.#.#..",
"..........#a#...",
"........bcaaa#.#",
".......cd.#a#...",
"...ecccb.#.###..",
"..ccfbfcc.......",
".ecbebfcce.#...#",
".cfebfcccc......",
".cfbfcccfc......",
".cffcccffc......",
".eccccfbce......",
"..cccfbcc.......",
"...eccce........"};
