/* XPM */
static char *cpp[] = {
/* width height num_colors chars_per_pixel */
"    16    15       23            1",
/* colors */
". c #000000",
"# c None",
"a c #006051",
"b c #116b5d",
"c c #202020",
"d c #24786b",
"e c #2a7a6d",
"f c #404040",
"g c #478e85",
"h c #56988f",
"i c #606060",
"j c #6aa69f",
"k c #808080",
"l c #83b7b3",
"m c #8cbcb8",
"n c #9ac0ba",
"o c #a0a0a0",
"p c #a5c6c0",
"q c #b0c7ca",
"r c #c0c0c0",
"s c #cee5e8",
"t c #d8eff2",
"u c #ffffff",
/* pixels */
"iiiiiiiiiiiiiiif",
"itttttttttttttt.",
"itfttttttttttft.",
"iuuuuneaenuuuuu.",
"iufupaaaaapuufu.",
"itttdahtlagtttt.",
"itftaattettetft.",
"iuuuaaueaeeaeuu.",
"iufuaauueuueufu.",
"itttdajtlagtttt.",
"itftmaaaaamtiiic",
"iuuuunbaenuuiurf",
"iufuuuuuuuuokrfo",
"ittttttttsqirfk#",
"f..........cfo##"
};
