/* XPM */
static char * Database_xpm[] = {
"16 15 20 1",
" 	c None",
"!	c #8EBCDF",
"#	c #75BEEF",
"$	c #5DBEFF",
"%	c #289AF7",
"&	c #0C3D82",
"/	c #39AAFB",
"(	c #55BAFF",
")	c #49A6EF",
"=	c #358AD2",
"+	c #0C4596",
"*	c #4DB6FF",
"-	c #188AEF",
"[	c #0C71D7",
"]	c #0C61BE",
"{	c #0C51AA",
"}	c #51AAFB",
"<	c #59B6FF",
">	c #3979BE",
",	c #658AB6",
"   !#$$$$$#!    ",
"  $$$$$$$$$$$   ",
" $$$$$$$$$$$$$  ",
" %$$$$$$$$$$$&  ",
" %/($$$$$$)=+&  ",
" %/*$*/%-[]{+&  ",
" %/*$*/%-[]{+&  ",
" %/*$*/%-[]{+&  ",
" %/*$*/%-[]{+&  ",
" %/*$*/%-[]{+&  ",
" %/*$*/%-[]{+&  ",
" %/*$*/%-[]{+&  ",
" %/*$*/%-[]{+&  ",
"  }<$*/%-[]{+   ",
"   !#*/%-[>,    "};
