/* XPM */
static char * deb_xpm[] = {
"16 15 52 1",
" 	c None",
"!	c #D4D4D4",
"#	c #E4E4E4",
"$	c #F5F5F5",
"%	c #FEFEFE",
"&	c #EBBABA",
"/	c #EBAAAE",
"(	c #EF9296",
")	c #D71C24",
"=	c #B28E92",
"+	c #CDCDCD",
"*	c #FBDBDB",
"-	c #8A595D",
"[	c #7D7D7D",
"]	c #A6A6A6",
"{	c #CA757D",
"}	c #D7656D",
"<	c #C65559",
">	c #828282",
",	c #554D9A",
".	c #929292",
"|	c #BA8E96",
"@	c #DEDEDE",
"~	c #FBD7DB",
"'	c #C6C6C6",
"?	c #B5B5B5",
"0	c #AA5559",
"1	c #BCBCBC",
"2	c #ECECEC",
"3	c #CE595D",
"4	c #DB454D",
"5	c #9E9E9E",
"6	c #A67171",
"7	c #AAAAAA",
"8	c #E38286",
"9	c #FFF7F7",
"A	c #EFAEB2",
"B	c #DF9A9E",
"C	c #C63139",
"D	c #D78E92",
"E	c #EB7579",
"F	c #F7CACA",
"G	c #C64951",
"H	c #CE797D",
"I	c #C68E92",
"J	c #E3DFE3",
"K	c #E7B2B2",
"L	c #D71C28",
"M	c #CE121C",
"N	c #B6454D",
"O	c #717171",
"P	c #A63949",
"  !#$%&/#%%$#!  ",
" !#%%())=+%%%#! ",
"+#$%*)-[]{}#%$#+",
"!$%%(<>,.|)]%%$!",
"@$%~)>'%%%?#%%$@",
"#%%(01%%%%%%%%%#",
"2%%)[!%3+%%%%%%2",
"2%%45$%67%%%%%%2",
"2%%81%%##%9)2%%2",
"#%%A+%%%%%BC?%%#",
"@$%%2%%%%D)-?%$@",
"!2%%%%E)))-?2%2!",
"+@$F//)GHI+2%$@+",
" +JKLMNOPMM2%J+ ",
"  +@??+!+??##+  "};
