/* XPM */
static char * Directory_xpm[] = {
"16 15 12 1",
" 	c None",
"!	c #B68E4D",
"#	c #9E7D4D",
"$	c #654D18",
"%	c #968A71",
"&	c #92866D",
"/	c #CA9E5D",
"(	c #9A7124",
")	c #D7AE79",
"=	c #B28E59",
"+	c #695120",
"*	c #FFCE9A",
"                ",
"  !##$%  &      ",
" $/(!)#$&=+&    ",
" $**/(!))))#$   ",
" $****/(!)))$   ",
" $******/(!)($  ",
" $********/(($  ",
" $*********$($  ",
" $*********$($  ",
" $*********$($  ",
" &$=*******$($  ",
"   &$=*****$($  ",
"     &$=***$($  ",
"       &$=*$($  ",
"         &$$$   "};
