/* XPM */
static char * EggTimer2_xpm[] = {
"16 15 25 1",
".	c #010101",
"#	c None",
"a	c #1E1E1E",
"b	c #252525",
"c	c #373737",
"d	c #4F4F4F",
"e	c #5D5D5D",
"f	c #626262",
"g	c #818181",
"h	c #8C8C8C",
"i	c #919191",
"j	c #9A9A9A",
"k	c #A0A0A0",
"l	c #ABABAB",
"m	c #BABABA",
"n	c #C1C1C1",
"o	c #CACACA",
"p	c #D4D4D4",
"q	c #DBDBDB",
"r	c #E2E2E2",
"s	c #ECECEC",
"t	c #F5F5F5",
"u	c #F37B7B",
"v	c #FAFAFA",
"w	c #FF1F1F",
"######kkk#######",
"#####kqspk######",
"####kttsssk#####",
"###kqvvvtsng####",
"###kvvvvtssk####",
"##hovvvvtssmg###",
"##krvvtwtsqnd###",
"##kvvvtutsqnc###",
"##knkiigeeebb###",
"##kvkvivereka###",
"##kpkvkrinei.###",
"##hiqqpnmlifa###",
"###gkkllkjk.####",
"####.fikif.#####",
"#####a...a######"};
