/* XPM */
static char * eps_xpm[] = {
"16 15 25 1",
" 	c None",
"!	c #616161",
"#	c #414141",
"$	c #FFFFFF",
"%	c #000000",
"&	c #412000",
"/	c #9E4100",
"(	c #F38AB2",
")	c #EB5D96",
"=	c #E32871",
"+	c #EF84AE",
"*	c #E74182",
"-	c #F7B2CE",
"[	c #FBD7E7",
"]	c #DFDFDF",
"{	c #EB5592",
"}	c #C2C2C2",
"<	c #EF7100",
">	c #CECECE",
",	c #FFEBF3",
".	c #202020",
"|	c #F7AACA",
"@	c #EB518E",
"~	c #A2A2A2",
"'	c #828282",
" !!!!!!!!!!!!!# ",
" !$$$$$$$$$$$$% ",
" !$$$$$$$$$&$$% ",
" !$$$$$$$$/$$$% ",
" !$$$$$$$/$()=% ",
" !$$$$$$/+*-[]% ",
" !$$$$//{-$$}$% ",
" !$$$$/=$$$}$$% ",
" !$$$<{$$$}]>}% ",
" !$$<+-$}}>>]$% ",
" !$<,*$$}}$!!!. ",
" !/$(|$}>$$!$}# ",
" !$$@[}]>$~'}#~ ",
" !$$=}$>]}!}#'  ",
" #%%%%%%%%.#~   "};
