/* XPM */
static char * ExcelCalcXLS_xpm[] = {
"16 15 36 2",
"..	c #000000",
".#	c None",
".a	c #002020",
".b	c #004040",
".c	c #006060",
".d	c #107F80",
".e	c #222222",
".f	c #209FA0",
".g	c #2B2B2B",
".h	c #2E5E5E",
".i	c #343434",
".j	c #404040",
".k	c #40BEC0",
".l	c #575757",
".m	c #585858",
".n	c #616161",
".o	c #6A6A6A",
".p	c #777777",
".q	c #78C6C8",
".r	c #818181",
".s	c #8A8A8A",
".t	c #919191",
".u	c #989898",
".v	c #A0A0A0",
".w	c #ACACAC",
".x	c #B0CFD0",
".y	c #B4B4B4",
".z	c #BBBBBB",
".A	c #C0C0C0",
".B	c #CACACA",
".C	c #D6D6D6",
".D	c #DEDEDE",
".E	c #E4E4E4",
".F	c #EAEAEA",
".G	c #F5F5F5",
".H	c #FEFEFE",
".H.H.H.C.H.H.H.C.H.H.H.C.H.H.H.o",
".H.A.A.o.H.A.A.o.H.A.A.o.H.A.A..",
".v.o.o.i.o.i.i.i.o.i.i.i.o.i.i..",
".H.H.H.o.H.H.H.A.H.H.H.A.H.H.H..",
".H.A.h.b.a.E.F.b.b.a.E.z.H.H.H..",
".v.o.b.x.x...b.f.d...u.y.z.A.A..",
".H.H.F.b.k.q...c...v.z.w.H.H.H..",
".H.A.y.g.b.k.q...b.b.a.v.G.H.H..",
".v.o.o.b.f.b.k.q...c...t.t.A.A..",
".H.H.b.d.c.c.b.k.q...u.t.F.H.H..",
".H.A.a.........b.k.q...t.m.n.n.e",
".v.o.n.g.s.r.r.r.b...e.t.l.H.A.j",
".H.H.G.n.E.D.D.v.B.z.z.r.p.A.j.v",
".H.A.z.i.H.G.G.z.F.B.w.m.z.j.r.#",
".i.....................e.j.v.#.#"};
