/* XPM */
static char * exe2_xpm[] = {
"16 15 34 1",
".	c #000000",
"#	c #000080",
"a	c #0E0E0E",
"b	c #182E13",
"c	c #19334F",
"d	c #1F3F62",
"e	c #202020",
"f	c #2E5E92",
"g	c #305B25",
"h	c #404040",
"i	c #458336",
"j	c #606060",
"k	c #6E6E6E",
"l	c #732316",
"m	c #776521",
"n	c #777777",
"o	c #808080",
"p	c #812719",
"q	c #888888",
"r	c #919191",
"s	c #999999",
"t	c #9E301F",
"u	c #A0A0A0",
"v	c #AAAAAA",
"w	c #B3B3B3",
"x	c #BBBBBB",
"y	c #C0C0C0",
"z	c #D5D5D5",
"A	c #DDDDDD",
"B	c #E6E6E6",
"C	c #EEEEEE",
"D	c #F7D143",
"E	c #F7F7F7",
"F	c #FFFFFF",
"oooooooooooooooo",
"oyyyyyyyyyyyyyy.",
"oy############o.",
"oy######y#y#y#o.",
"oyyyyyyyyyyyyyo.",
"oyFEzzFFFFFFFFo.",
"oyFCAyqquyAEFFo.",
"oyFBAwrklpejyFo.",
"oyEAxvketligjFo.",
"oyCzzsrcdagbyFo.",
"oyFCwnedfmDeEFo.",
"oyFFFAyohemjFFo.",
"oyFFFFFFFAoyFFo.",
"oyooooooooooooo.",
"o..............."};
