/* XPM */
static char * FIFO2_xpm[] = {
"16 15 17 1",
".	c None",
"#	c #1F120B",
"a	c #55301C",
"b	c #5F2405",
"c	c #672C0D",
"d	c #703E23",
"e	c #723718",
"f	c #7D4528",
"g	c #8C5132",
"h	c #975C3D",
"i	c #AC7152",
"j	c #B97E5F",
"k	c #BC8163",
"l	c #CD9275",
"m	c #D4997A",
"n	c #E3A889",
"o	c #FFCDB3",
"................",
"................",
"................",
"................",
"..nmh......nmh..",
"llonijlllllonijl",
"nnnlhknnnnnnlhkn",
"iilhegiiiiilhegi",
"ffheadfffffheadf",
"##cb#######cb###",
"..a##......a##..",
"................",
"................",
"................",
"................"};
