/* XPM */
static char * Floppy_xpm[] = {
"16 15 20 1",
" 	c None",
"!	c #8A969A",
"#	c #516D75",
"$	c #75797D",
"%	c #759EAA",
"&	c #EBF3F3",
"/	c #283539",
"(	c #FFFFFF",
")	c #BACED2",
"=	c #96B2BA",
"+	c #65868E",
"*	c #B6CACE",
"-	c #F3F3F3",
"[	c #EFEFEF",
"]	c #DFDFDF",
"{	c #AABEC2",
"}	c #55696D",
"<	c #B6B6B6",
">	c #5D5D5D",
",	c #354549",
"       !##$     ",
"     !#%&%/     ",
"   !#%&&()%$    ",
" !#%&&((((%/    ",
"#%&&(((((()%$   ",
"%)(((((((((%/   ",
"#=((((((()%+%$  ",
"!%)(((()%%##%/  ",
" #=(()%%*-%++%$ ",
" !%)%%*-[]{%#%/ ",
"  #=%-[}]]]%#/$ ",
"  !%%{[{]<>/$   ",
"   #=%-]>/$     ",
"   !#,>/$       ",
"    #/$         "};
