/* XPM */
static char * Font_xpm[] = {
"16 15 48 1",
"R	c #5B5B5B",
".	c None",
"y	c #AB6A2B",
"3	c #926D45",
"F	c #6D6D6D",
"e	c #C68649",
"l	c #352D18",
"j	c #2D2814",
"w	c #BA9269",
"m	c #BC7531",
"p	c #865924",
"q	c #945B24",
"i	c #734920",
"S	c #92714D",
"V	c #828282",
"Y	c #A68661",
"5	c #A46528",
"z	c #312D14",
"K	c #A2A2A2",
"A	c #614D39",
"D	c #6D695D",
"o	c #54351C",
"v	c #8E5920",
"8	c #CA7D35",
"h	c #9E6128",
"9	c #9C7B5B",
"7	c #616161",
"P	c #B6712D",
"Z	c #835120",
"a	c #8A5520",
"I	c #443418",
"T	c #8E6541",
"E	c #CA8235",
"n	c #C47A31",
"U	c #9C6124",
"X	c #B28A65",
"N	c #795120",
"1	c #B26D2D",
"b	c #8E8E8E",
"g	c #55411C",
"G	c #5A411C",
"H	c #393118",
"C	c #65513D",
"r	c #4D3920",
"O	c #BE7931",
"u	c #CA863D",
"W	c #695945",
"B	c #555555",
"................",
".......uu.......",
".......8Eg......",
"......nennD.....",
"......mjmOl.....",
".....wPzPmp.....",
".....yGW.11DKKK.",
".....yH..yyGVVVK",
"....5ZW..X557FVK",
"....UUUUUhhhI7FK",
"...YqrIIIIqqN77K",
"...vGW.R777qq77.",
"..9Zib7F...aaiR.",
".9ZZZTB...3ZZZS.",
"..CoooZ....AoooF"};
