/* XPM */
static char * Ghost2_xpm[] = {
"16 15 9 1",
".	c #000000",
"#	c None",
"a	c #202020",
"b	c #404040",
"c	c #606060",
"d	c #C0C0C0",
"e	c #DFDFDF",
"f	c #F3F3F3",
"g	c #FEFEFE",
"#####cbbc#######",
"####begge.######",
"###ceggggdb#####",
"###bgggggd.#####",
"##bbg.gg.d..b###",
"#cgegbggbebgdb##",
"#bggggggggggd.##",
"##.ggggggggd.###",
"###bggggggdb####",
"###cgggggfd.####",
"###bgegggeeb####",
"##befeggfege.###",
"#cggdbgedbgedb##",
"##a..a#b..#b.###",
"################"};
