/* XPM */
static char * gif_xpm[] = {
"16 15 12 1",
" 	c None",
"!	c #FFFFFF",
"#	c #DFDFDF",
"$	c #AAAAAA",
"%	c #9A9A9A",
"&	c #555555",
"/	c #004900",
"(	c #002400",
")	c #009600",
"=	c #000000",
"+	c #7DCA7D",
"*	c #BEE7BE",
"                ",
"  !##########$  ",
"  #%%%%%%%%%%&  ",
"///////////////(",
"/))))))))))))))=",
"/)+!!*)!!!)!!!!=",
"/)!)))))!))!)))=",
"/)!)!!))!))!!!)=",
"/)!))!))!))!)))=",
"/)+!!+)!!!)!)))=",
"/))))))))))))))=",
"(===============",
"  #%%%%%%%%%%&  ",
"  $&&&&&&&&&&&  ",
"                "};
