/* XPM */
static char * gif3_xpm[] = {
"16 15 53 1",
".	c #000010",
"#	c None",
"a	c #004000",
"b	c #005000",
"c	c #006000",
"d	c #0F0600",
"e	c #130800",
"f	c #1C0B00",
"g	c #222232",
"h	c #306C30",
"i	c #334455",
"j	c #381700",
"k	c #3F3F4F",
"l	c #441100",
"m	c #555565",
"n	c #582400",
"o	c #5F7C25",
"p	c #608860",
"q	c #609060",
"r	c #652900",
"s	c #76933C",
"t	c #7799AA",
"u	c #7B3607",
"v	c #7EA14F",
"w	c #7FAF7F",
"x	c #7FCA7F",
"y	c #80A14E",
"z	c #8C4718",
"A	c #99AACC",
"B	c #9B5627",
"C	c #A7A7B7",
"D	c #AC6738",
"E	c #BD7849",
"F	c #BFD7BF",
"G	c #CCCCEE",
"H	c #CDBAAD",
"I	c #D08B5C",
"J	c #D9CBC1",
"K	c #DA9566",
"L	c #DC9A6E",
"M	c #EBA677",
"N	c #ECA778",
"O	c #ECC3A7",
"P	c #EEAD81",
"Q	c #F2B184",
"R	c #F0F0FF",
"S	c #F3C3A1",
"T	c #F3B68C",
"U	c #F5F0F0",
"V	c #FEC39A",
"W	c #FFE0D5",
"X	c #FFE2CE",
"Y	c #FFFFFF",
"OTMMNNMMMMTTV###",
"IBrjjjruzDIMPTV#",
"MDedeeffjnuDILTV",
"OVEenHJGRtglnBMQ",
"#SVuuJUm...kznzM",
"#OVIzKUkg.gkUDnI",
"##SVMKWAgiiCUMEM",
"###VVMQXXUUUMMTV",
"#qccvycscccoMTVV",
"qwYYFcYbYYYbVVV#",
"cYaaacYaYaapV###",
"cYaYYbYaYYxh####",
"cYaaYaYaYab#####",
"qwYYwbYaYa######",
"#qbahqbhbh######"};
