/* XPM */
static char * GnomeWord_xpm[] = {
"16 15 75 2",
"..	c #000000",
".#	c #0D0704",
".a	c #100B08",
".b	c #13120C",
".c	c #130B06",
".d	c #1A1815",
".e	c #1A1A1A",
".f	c #202020",
".g	c #231E18",
".h	c #25201B",
".i	c #342D25",
".j	c #39332D",
".k	c #3E382C",
".l	c #404040",
".m	c #422822",
".n	c #503D37",
".o	c #514944",
".p	c #544D3E",
".q	c #5A564D",
".r	c #5F5C51",
".s	c #606060",
".t	c #615143",
".u	c #61665D",
".v	c #625549",
".w	c #635A59",
".x	c #665252",
".y	c #6F605A",
".z	c #706B69",
".A	c #73655E",
".B	c #777166",
".C	c #797573",
".D	c #808080",
".E	c #8A8681",
".F	c #8D8D8D",
".G	c #928376",
".H	c #92897E",
".I	c #938A8A",
".J	c #938D81",
".K	c #949090",
".L	c #9C8D83",
".M	c #9B9797",
".N	c #9E827D",
".O	c #9E9183",
".P	c #A08C87",
".Q	c #A2928C",
".R	c #A0A0A0",
".S	c #A49D9A",
".T	c #A79E91",
".U	c #AAA6A6",
".V	c #ADADAD",
".W	c #ABA09B",
".X	c #AFA093",
".Y	c #B2A59B",
".Z	c #B4A6A0",
".0	c #B5AAA8",
".1	c #B8ADA8",
".2	c #BCB2AA",
".3	c #C2C2C2",
".4	c #CACACA",
".5	c #CCC7C6",
".6	c #CEC9C1",
".7	c #D3D3D3",
".8	c #D4C7C1",
".9	c #D5CDCC",
"#.	c #DADADA",
"##	c #DAD2CE",
"#a	c #DEDBD4",
"#b	c #E3E3E3",
"#c	c #E2E0DB",
"#d	c #E3DCD5",
"#e	c #E6DCDB",
"#f	c #EBEBEB",
"#g	c #F2F2F2",
"#h	c #FCFCFC",
"#i	c None",
"#i.s.s.s.s.s.s.s.s.s.s.s.s.s.l#i",
"#i.s#h#h#f#..7.3.4#f#h#h#h#h..#i",
"#i.s#h#f.3.8.M#e.v.3#f#h#h#h..#i",
"#i.s#g.3.6.W.y.1.j.I#b#h#h#h..#i",
"#i.s#b.9.0.j.b.n.b.K.7#g#h#h..#i",
"#i.s.7##.r.z.5#c.Y.J.3#f#h#h..#i",
"#i.s.4.1.j.0#a.Y.H.i.S#b#h#h..#i",
"#i.s.3.2.p#d.Z.L.A.c.U#.#f#h..#i",
"#i.s.7.u.h.6.Q.o.a.w.F.V.4#f..#i",
"#i.s#f.4.F.2.O.d.C.S##.P.x#...#i",
"#i.s#h#b.V.N.O.k.E.Q.X.s.s.s.f#i",
"#i.s#h#g.4.Q.G.G.T.9.2.s#h.3.l#i",
"#i.s#h#h#b.V.t.B.L.L.q.D.3.l.R#i",
"#i.s#h#h#g#..U.m.g.h.#.3.l.D#i#i",
"#i.l.................e.l.R..#i#i"};
