/* XPM */
static char * GnomeCalc_xpm[] = {
"16 15 91 2",
"..	c #000000",
".#	c None",
".a	c #0E0805",
".b	c #0F0505",
".c	c #120A08",
".d	c #12100A",
".e	c #140C07",
".f	c #1B1916",
".g	c #1D1D1D",
".h	c #222222",
".i	c #23211C",
".j	c #241F19",
".k	c #282D23",
".l	c #2B2624",
".m	c #2D241E",
".n	c #2E2E2E",
".o	c #343434",
".p	c #352E26",
".q	c #35312E",
".r	c #362828",
".s	c #371B15",
".t	c #3B3B3B",
".u	c #3B3530",
".v	c #3F392D",
".w	c #414141",
".x	c #442E2E",
".y	c #453F2F",
".z	c #4B4B4B",
".A	c #4A4641",
".B	c #4D3A34",
".C	c #514C42",
".D	c #525252",
".E	c #5B5B5B",
".F	c #5B574E",
".G	c #5C4C3D",
".H	c #605246",
".I	c #605D52",
".J	c #616161",
".K	c #635B5B",
".L	c #6A6A6A",
".M	c #6F605A",
".N	c #716B5E",
".O	c #74665F",
".P	c #747474",
".Q	c #756D6D",
".R	c #787267",
".S	c #7B5B56",
".T	c #7E7B7B",
".U	c #7E7471",
".V	c #848484",
".W	c #8C8C8C",
".X	c #918580",
".Y	c #918C8B",
".Z	c #928378",
".0	c #938A7F",
".1	c #958677",
".2	c #97928A",
".3	c #9A8D8C",
".4	c #9B9B9B",
".5	c #9C807C",
".6	c #9D8D84",
".7	c #9E9184",
".8	c #9E9494",
".9	c #A1928B",
"#.	c #A1A1A1",
"##	c #A18D88",
"#a	c #AB9F94",
"#b	c #ACA19C",
"#c	c #ACACAC",
"#d	c #B0A194",
"#e	c #B3B3B3",
"#f	c #B2A89D",
"#g	c #B4ADA5",
"#h	c #B5A7A1",
"#i	c #BCBCBC",
"#j	c #B9AEA9",
"#k	c #BDB3AB",
"#l	c #C0C0C0",
"#m	c #CBCBCB",
"#n	c #CEC9C1",
"#o	c #D4D4D4",
"#p	c #D7CDCB",
"#q	c #D9D3D0",
"#r	c #DCDCDC",
"#s	c #DFDCD5",
"#t	c #E3E3E3",
"#u	c #E2DBD4",
"#v	c #E7DDDC",
"#w	c #EFEFEF",
"#x	c #F2F2F2",
"#y	c #FEFEFE",
"#y#y#y#o#y#y#y#o#y#y#y#o#y#y#y.L",
"#y#i#e.E#m.W.V.z#r#e#i.L#y#l#l..",
"#..J.E.h.9.l#v.H.z.n.o.o.L.o.o..",
"#y#t#c.2#b.M#j.u.K#m#w#i#y#y#y..",
"#y.4.8.U.u.d.B.d.K#i#t#i#y#y#y..",
"#..z#g.I.l.Y#q#a.N.T#.#i#i#l#l..",
"#y#e.X.m.3#s#f.0.p.Q#o#e#y#y#y..",
"#y.V#k.y#u#h.6.O.e.T#i#.#x#y#y..",
"#..D.k.c#n.9.C.c.r.E.L.V.W#l#l..",
"#y#t#e.n#k.7.f.q.D#q##.x#l#y#y..",
"#y#e.4.g.5.7.v.A.t#d.C.c.w.J.J.h",
"#..L.E.h.S.Z.1#a#p#k.i.c.z#y#l.w",
"#y#y#w.D.W.G.R.6.7.F.b.J.L#l.w#.",
"#y#l#i.o#l.W.s.j.i.a.P.z#e.w.V.#",
".o.....................g.t#..#.#"};
