/* XPM */
static char * app2_xpm[] = {
"16 15 28 1",
"N	c None",
".	c #000000",
"#	c #080808",
"a	c #101010",
"b	c #202020",
"c	c #2C2C2C",
"d	c #313131",
"e	c #404040",
"f	c #494949",
"g	c #505050",
"h	c #5C5C5C",
"i	c #606060",
"j	c #6D6D6D",
"k	c #707070",
"l	c #7B7B7B",
"m	c #808080",
"n	c #8B8B8B",
"o	c #919191",
"p	c #9B9B9B",
"q	c #A1A1A1",
"r	c #ABABAB",
"s	c #BEBEBE",
"t	c #D1D1D1",
"u	c #DDDDDD",
"v	c #E4E4E4",
"w	c #EDEDED",
"x	c #F7F7F7",
"y	c #FFFFFF",
"NNNNNmigeimNNNNN",
"NNNpkigeda..beeN",
"NNpkigedb.yyy..N",
"Npkigedba.yxwv.N",
"Nkigedba#.ywvtgN",
"migedba#..yvtskN",
"igeda.....ytsrnN",
"gedb.yyyyyvsrplN",
"edba.yxwvtsrqnjN",
"iba#.ywvtsrqolfN",
"ma#..yvtsrqolhcN",
"N....ytsrqolid.N",
"iewyyvsrqolie..N",
"eb.utsrpnlhd...N",
"b..gjonljfc....N"};
