/* XPM */
static char * Harddrive2_xpm[] = {
"16 15 68 2",
"  	c None",
"..	c #000000",
".#	c #3F2C3F",
".a	c #5F515F",
".b	c #7D646C",
".c	c #808080",
".d	c #A77B7B",
".e	c #A88576",
".f	c #A99690",
".g	c #AD6D5F",
".h	c #AD9574",
".i	c #AE7B5C",
".j	c #AE9E8B",
".k	c #B07D5E",
".l	c #B488A4",
".m	c #C7C7C7",
".n	c #CEBEC3",
".o	c #D0CCCA",
".p	c #D189B3",
".q	c #D298C9",
".r	c #D59FC7",
".s	c #D5A1C7",
".t	c #D99E96",
".u	c #D9AAC6",
".v	c #DCB1C6",
".w	c #DDB99B",
".x	c #DEC9B4",
".y	c #DFB8C6",
".z	c #DFDFDF",
".A	c #E0BAC6",
".B	c #E19178",
".C	c #E2BFC8",
".D	c #E2D2D5",
".E	c #E4C6CB",
".F	c #E5B673",
".G	c #E5C889",
".H	c #E77917",
".I	c #EA8D54",
".J	c #EBAB97",
".K	c #ECA495",
".L	c #ECAF99",
".M	c #ECB195",
".N	c #EDA68E",
".O	c #EDB798",
".P	c #EDBC99",
".Q	c #EDC39D",
".R	c #EECCA3",
".S	c #EDCEAC",
".T	c #EED3AF",
".U	c #EEE0E0",
".V	c #EFD8B3",
".W	c #F0A17F",
".X	c #F0DBB5",
".Y	c #F2D38D",
".Z	c #F3AC74",
".0	c #F4A072",
".1	c #F3A551",
".2	c #F3DB95",
".3	c #F4BB6A",
".4	c #F4BC78",
".5	c #F5CC81",
".6	c #F4DC8F",
".7	c #F4E0A2",
".8	c #F4E29F",
".9	c #F4E7B3",
"#.	c #F8EEDB",
"##	c #F9DCC2",
"#a	c #FEFEFD",
"                                ",
"                                ",
".a.#.#.#.#.#.#.#.#.#.#.#.#.#.a..",
".U.D.y.........f.x.S.w.e...#.#..",
".D.E.v.......X.V.T.R.Q.O.M...#..",
".D.E.v.....h#.#a.R.Q.P.M.L.d.#..",
".D.E.v...c#a.z.k###a##.M.J.t....",
".D.E.v#a.z.m.k.Y#a.o#a.I.N.K....",
".D.C.A.q.m.k.6.Y###a.H.I.W.B....",
".D.v.v.u.p.j.8.2.Y.3.1.Z.0.g....",
".n.v.u.s.b...9.7.Y.5.4.Z.0.#.#..",
".#.l.r.q.b.....j.G.5.F.i...#.#..",
".a.#.b.b.b.#.#.#.........#.#.a..",
"................................",
"                                "};
