/* XPM */
static char * html2_xpm[] = {
"16 15 16 1",
" 	c None",
"!	c #616161",
"#	c #414141",
"$	c #FFFFFF",
"%	c #000000",
"&	c #FFFF00",
"/	c #EFEF6D",
"(	c #FF0000",
")	c #E7E7A6",
"=	c #FF7D00",
"+	c #FF3D00",
"*	c #202020",
"-	c #C2C2C2",
"[	c #A2A2A2",
"]	c #DFDFDF",
"{	c #828282",
" !!!!!!!!!!!!#  ",
" !$$$$$$$$$$$%  ",
" !$$$$$&$$$$$%  ",
" !$$$$/(/$$$$%  ",
" !$$$)=(=)$$$%  ",
" !)))/+(+/)))%  ",
" !)((((((((()%  ",
" !$)+(((((+)$%  ",
" !$$)=(((=)$$%  ",
" !$$)=(+(=)$$%  ",
" !$$/++&++!!!*  ",
" !$$/(/$/(!$-#  ",
" !$$&)$$$[!-#[  ",
" !$$$$$]-!-#{   ",
" #%%%%%%%*#[    "};
