/* XPM */
static char * iff_xpm[] = {
"16 15 10 1",
" 	c None",
"!	c #FFFFFF",
"#	c #DFDFDF",
"$	c #AAAAAA",
"%	c #9A9A9A",
"&	c #555555",
"/	c #7D1000",
"(	c #3D0800",
")	c #FF2400",
"=	c #000000",
"                ",
"  !##########$  ",
"  #%%%%%%%%%%&  ",
"///////////////(",
"/))))))))))))))=",
"/)!))!!!!)!!!!)=",
"/)!))!))))!))))=",
"/)!))!!!))!!!))=",
"/)!))!))))!))))=",
"/)!))!))))!))))=",
"/))))))))))))))=",
"(===============",
"  #%%%%%%%%%%&  ",
"  $&&&&&&&&&&&  ",
"                "};
