/* XPM */
static char * iff3_xpm[] = {
"16 15 48 1",
".	c #000010",
"#	c None",
"a	c #0F0600",
"b	c #130800",
"c	c #1C0B00",
"d	c #222232",
"e	c #334455",
"f	c #381700",
"g	c #3F3F4F",
"h	c #441100",
"i	c #555565",
"j	c #582400",
"k	c #652900",
"l	c #7799AA",
"m	c #7B3607",
"n	c #800000",
"o	c #8C4718",
"p	c #99AACC",
"q	c #9B5627",
"r	c #A02000",
"s	c #A7A7B7",
"t	c #A84830",
"u	c #AC6738",
"v	c #B7421B",
"w	c #BD7849",
"x	c #C02000",
"y	c #C16C5B",
"z	c #CCCCEE",
"A	c #CDBAAD",
"B	c #CE4524",
"C	c #D08B5C",
"D	c #D9CBC1",
"E	c #DA9566",
"F	c #DC9A6E",
"G	c #DF8F7F",
"H	c #EBA677",
"I	c #ECA778",
"J	c #ECC3A7",
"K	c #EEAD81",
"L	c #F2B184",
"M	c #F0F0FF",
"N	c #F3C3A1",
"O	c #F3B68C",
"P	c #F5F0F0",
"Q	c #FEC39A",
"R	c #FFE0D5",
"S	c #FFE2CE",
"T	c #FFFFFF",
"JOHHIIHHHHOOQ###",
"CqkfffkmouCHKOQ#",
"HubabbccfjmuCFOQ",
"JQwbjADzMldhjqHL",
"#NQmmDPi...gojoH",
"#JQCoEPgd.dgPujC",
"##NQHERpdeesPHwH",
"###QQHLSSPPPHHOQ",
"yxyxxxBxxxvwHOQQ",
"xTrTTTrTTTrQQQQ#",
"xTnTnnrTnnrQQ###",
"xTnTTGxTTGt#####",
"xTnTnrxTnx######",
"xTnTn#xTn#######",
"yrtrt#yrt#######"};
