/* XPM */
static char * Image2_xpm[] = {
"16 15 49 2",
"..	c #000010",
".#	c None",
".a	c #0F0600",
".b	c #130800",
".c	c #1C0B00",
".d	c #222232",
".e	c #334455",
".f	c #381700",
".g	c #3F3F4F",
".h	c #441100",
".i	c #555565",
".j	c #582400",
".k	c #652900",
".l	c #7799AA",
".m	c #7B3607",
".n	c #8C4718",
".o	c #99AACC",
".p	c #9B5627",
".q	c #A15E2F",
".r	c #A7A7B7",
".s	c #AB6738",
".t	c #AD6A3E",
".u	c #B37043",
".v	c #B9774B",
".w	c #BC784A",
".x	c #BE7D50",
".y	c #CCCCEE",
".z	c #CDBAAD",
".A	c #D08B5C",
".B	c #D5966B",
".C	c #D9CBC1",
".D	c #DA9566",
".E	c #DC9A6E",
".F	c #E2A479",
".G	c #E6C2AA",
".H	c #EBAC81",
".I	c #EAC3A8",
".J	c #EBA677",
".K	c #EBC2A6",
".L	c #ECA778",
".M	c #EDB086",
".N	c #F2B184",
".O	c #F0F0FF",
".P	c #F3B58C",
".Q	c #F2C2A2",
".R	c #F5F0F0",
".S	c #FEC39A",
".T	c #FFE0D5",
".U	c #FFE2CE",
".S.S.S.S.S.S.S.S.S.S.S.S.S.S.S.S",
".S.F.B.w.u.u.t.q.s.w.v.x.F.P.S.S",
".S.S.S.S.S.S.S.S.P.M.B.B.v.q.w.H",
".S.P.J.J.L.L.J.J.J.J.P.P.S.S.S.S",
".A.p.k.f.f.f.k.m.n.s.A.J.H.P.S.S",
".J.s.b.a.b.b.c.c.f.j.m.s.A.E.P.S",
".K.S.w.b.j.z.C.y.O.l.d.h.j.p.J.N",
".#.Q.S.m.m.C.R.i.......g.n.j.n.J",
".#.K.S.A.n.D.R.g.d...d.g.R.s.j.A",
".#.#.Q.S.J.D.T.o.d.e.e.r.R.J.w.J",
".#.#.G.S.S.J.N.U.U.R.R.R.J.J.P.S",
".#.#.#.I.S.S.S.J.A.w.s.w.J.P.S.S",
".#.#.#.#.K.S.S.S.S.S.S.S.S.S.S.#",
".#.#.#.#.#.#.Q.S.S.S.S.S.S.#.#.#",
".#.#.#.#.#.#.#.#.#.#.#.#.#.#.#.#"};
