/* XPM */
static char * Internet2_xpm[] = {
"16 15 117 2",
"..	c None",
".#	c #203B5C",
".a	c #203B53",
".b	c #203C62",
".c	c #21426C",
".d	c #223A4D",
".e	c #244060",
".f	c #23445F",
".g	c #274F76",
".h	c #285077",
".i	c #2C3F4D",
".j	c #335D8C",
".k	c #345F91",
".l	c #36608E",
".m	c #37669A",
".n	c #376983",
".o	c #3C728E",
".p	c #41556A",
".q	c #416EA3",
".r	c #4173AB",
".s	c #424D4C",
".t	c #426B9C",
".u	c #4480A0",
".v	c #467DB5",
".w	c #487AAB",
".x	c #4C82B6",
".y	c #4F616A",
".z	c #51647A",
".A	c #5184AE",
".B	c #546576",
".C	c #576162",
".D	c #5B5E4D",
".E	c #5F7189",
".F	c #617780",
".G	c #617B95",
".H	c #6589B2",
".I	c #668EA3",
".J	c #6896B6",
".K	c #6C7974",
".L	c #6D96C1",
".M	c #6E705B",
".N	c #6F95BC",
".O	c #6F98BF",
".P	c #749CB2",
".Q	c #7C795A",
".R	c #7C96A2",
".S	c #7D8893",
".T	c #7D8D70",
".U	c #7D989D",
".V	c #808080",
".W	c #808A8A",
".X	c #84908D",
".Y	c #85949B",
".Z	c #869069",
".0	c #8695A1",
".1	c #889CA6",
".2	c #88A1BD",
".3	c #8BA7C7",
".4	c #8F8B70",
".5	c #8F9E8E",
".6	c #96A17F",
".7	c #96A7B0",
".8	c #9BACAD",
".9	c #9BB0B6",
"#.	c #9E9161",
"##	c #A29B73",
"#a	c #A0A2A1",
"#b	c #A2BC9B",
"#c	c #A4B8C1",
"#d	c #A5AF9A",
"#e	c #A7A483",
"#f	c #A7C098",
"#g	c #A8B1A8",
"#h	c #ABABAB",
"#i	c #AEAC80",
"#j	c #AFB791",
"#k	c #B2A685",
"#l	c #B2B192",
"#m	c #B2B69F",
"#n	c #B2BFCA",
"#o	c #B3AE86",
"#p	c #B5A579",
"#q	c #B7B48C",
"#r	c #B7B7B7",
"#s	c #B8BB9B",
"#t	c #BAAF80",
"#u	c #BCB090",
"#v	c #BCB27C",
"#w	c #BCBCBC",
"#x	c #C2B48A",
"#y	c #C2C2C2",
"#z	c #C2C9AC",
"#A	c #C5B485",
"#B	c #C5BC91",
"#C	c #C8CA9B",
"#D	c #CAD3C6",
"#E	c #CEDCD8",
"#F	c #D0B887",
"#G	c #D3C8A2",
"#H	c #D4D2A4",
"#I	c #DCC995",
"#J	c #DDDDDD",
"#K	c #DFC594",
"#L	c #DFCE9B",
"#M	c #E2E2E2",
"#N	c #E1CF9B",
"#O	c #E7E8BA",
"#P	c #EBEBEB",
"#Q	c #EEE5A7",
"#R	c #F1E8A9",
"#S	c #F4F4F4",
"#T	c #F5F4D3",
"#U	c #F6F7DD",
"#V	c #FCFCFC",
"#W	c #FEFCDB",
"#X	c #FDFBD3",
"#Y	c #FFFCE1",
"........#c.R.R.Y.T.8............",
".......L.7.U.5.6.T.Z.X..........",
".....O#D#Y#T.9#a#u#B#v.4........",
"...N#E#Y#W#W#X#U#H#R#t#..W......",
".3.x#z#O#T#W#X#X#s#Q#o.Q.M.Y....",
".H.x.J.P#b#f#C#N#x#l.K.i.D.B....",
".H.v.x.A#d#j#q#x#F#e.f.d.s.B....",
".H.r.w.w#g#K#A#p#V#V#S#S#P#M#M#J",
".H.m.q.t#G#L#i###V.n.n.n.n.n.o#h",
".2.j.k.l#m#I##.y#V.n.1#h.1.I.u#h",
"...G.g.h.F#k.C.e#V.n.1.1.1.I.u#h",
".....p.e.c.c.b.##S.o.I.I.I.I.u#a",
".......E.e.#.b.a#J#y#w#r#h#h#h#a",
".........0.z.z.B.S#n#a.V.V#a....",
"..................#J#J#J#J#J.V.."};
