/* XPM */
static char * java2_xpm[] = {
"16 15 82 2",
"  	c None",
"..	c #000000",
".#	c #202020",
".a	c #404040",
".b	c #433D76",
".c	c #4638B5",
".d	c #4B3DB6",
".e	c #5B4FBD",
".f	c #606060",
".g	c #756BC8",
".h	c #756CB7",
".i	c #786DC9",
".j	c #7D7ACC",
".k	c #808080",
".l	c #857BCE",
".m	c #8974BE",
".n	c #8F86D2",
".o	c #928AD3",
".p	c #943781",
".q	c #988ED1",
".r	c #9A6EB3",
".s	c #9B93D7",
".t	c #9F3678",
".u	c #A0A0A0",
".v	c #A4A3DB",
".w	c #A464A3",
".x	c #A65391",
".y	c #A69FDB",
".z	c #AEA8DE",
".A	c #B0C7CA",
".B	c #B2ACE0",
".C	c #B2B0C3",
".D	c #B6B0E2",
".E	c #BABEE4",
".F	c #C0C0C0",
".G	c #C1CBE8",
".H	c #C7D8EB",
".I	c #CCDBEC",
".J	c #CEE5E8",
".K	c #CFCBEC",
".L	c #D0CCEC",
".M	c #D1E4EF",
".N	c #D8EEF1",
".O	c #D9E1E4",
".P	c #D9E6EA",
".Q	c #DA8995",
".R	c #DB919D",
".S	c #DB97A2",
".T	c #DBA2AC",
".U	c #DCABB5",
".V	c #DC8592",
".W	c #DC9FAA",
".X	c #DCC9D0",
".Y	c #DE5768",
".Z	c #DE7987",
".0	c #DF5264",
".1	c #DF8C98",
".2	c #E0152C",
".3	c #E04053",
".4	c #E05768",
".5	c #E06B7A",
".6	c #E1818E",
".7	c #E36675",
".8	c #E4B9CC",
".9	c #E55F6F",
"#.	c #E6E4F5",
"##	c #E9606F",
"#a	c #E98596",
"#b	c #EB6473",
"#c	c #EB6877",
"#d	c #ECEBF8",
"#e	c #ED7381",
"#f	c #ED7886",
"#g	c #EF8994",
"#h	c #F1949E",
"#i	c #F197A1",
"#j	c #F1F0FA",
"#k	c #F3A3AC",
"#l	c #F8CCD1",
"#m	c #FEFEFE",
"#n	c #FCE6E8",
"#o	c #FCE8EB",
".f.f.f.f.f.f.f.f.f.f.f.f.f.f.f.a",
".f.N.N.N.N.N.U.U.V.R.6.N.N.N.N..",
".f.N.a.N.P.0.Q.2.X.N.T.N.N.a.N..",
".f#m#m#m#k#c#i#g#g#n#f#l#m#m#m..",
".f#m.a#m#h#c###b.2#e.2#o#m.a#m..",
".f.N.N.N.W.U.4.2.7.5.Z.N.N.N.N..",
".f.N.a.N.N.1.Y.9.3.S.O.T.N.a.N..",
".f#m#m#m#m.K.D.w.t#a.8.d.n#d#m..",
".f#m.a#m#m.d.d.r.x.p.d.v.d.b#m..",
".f.N.N.N.N.I.d.q.d.m.G.d.j.H.N..",
".f.N.a.N.N.M.g.d.d.d.E.v.f.f.f.#",
".f#m#m#m.s.z.L.o.l.y#j#..f#m.F.a",
".f#m.a#j.B.i.d.c.d.d.e.h.f.C.a.u",
".f.N.N.N.N.N.N.N.N.J.A.f.F.a.k  ",
".a.....................#.a.u    "};
