/* XPM */
static char * jpg3_xpm[] = {
"16 15 53 1",
".	c #000010",
"#	c None",
"a	c #0F0600",
"b	c #130800",
"c	c #1C0B00",
"d	c #222232",
"e	c #334455",
"f	c #381700",
"g	c #3F3F4F",
"h	c #404000",
"i	c #441100",
"j	c #505000",
"k	c #555565",
"l	c #582400",
"m	c #606000",
"n	c #652900",
"o	c #6C6C30",
"p	c #7799AA",
"q	c #7B3607",
"r	c #7E6218",
"s	c #87873F",
"t	c #8C4718",
"u	c #8C8C59",
"v	c #929265",
"w	c #99AACC",
"x	c #9B5627",
"y	c #A7A7B7",
"z	c #A8843F",
"A	c #A89358",
"B	c #AC6738",
"C	c #AFAF7F",
"D	c #B29351",
"E	c #BD7849",
"F	c #CCCCEE",
"G	c #CDBAAD",
"H	c #D08B5C",
"I	c #D7D7BF",
"J	c #D9CBC1",
"K	c #DA9566",
"L	c #DC9A6E",
"M	c #EBA677",
"N	c #ECA778",
"O	c #ECC3A7",
"P	c #EEAD81",
"Q	c #F2B184",
"R	c #F0F0FF",
"S	c #F3C3A1",
"T	c #F3B68C",
"U	c #F5F0F0",
"V	c #FEC39A",
"W	c #FFE0D5",
"X	c #FFE2CE",
"Y	c #FFFFFF",
"OTMMNNMMMMTTV###",
"HxnfffnqtBHMPTV#",
"MBbabbccflqBHLTV",
"OVEblGJFRpdilxMQ",
"#SVqqJUk...gtltM",
"#OVHtKUgd.dgUBlH",
"##SVMKWwdeeyUMEM",
"###VVMQXXUUUMMTV",
"#vmAmmDzmmrmmmDV",
"#mYjYYCmYYjCYYj#",
"#mYhYmYhYhmYhhu#",
"#mYhYYCjYIjYsYh#",
"vmYhYhjmYhmYhYh#",
"mYIhYh#mYYhCYCj#",
"vjovjo#vjhomhjv#"};
