/* XPM */
static char * jpeg_xpm[] = {
"16 15 13 1",
" 	c None",
"!	c #FFFFFF",
"#	c #DFDFDF",
"$	c #AAAAAA",
"%	c #9A9A9A",
"&	c #555555",
"/	c #3D3D00",
"(	c #202000",
")	c #7D7D00",
"=	c #000000",
"+	c #BEBE7D",
"*	c #DFDFBE",
"-	c #9E9E3D",
"                ",
"  !##########$  ",
"  #%%%%%%%%%%&  ",
"///////////////(",
"/))))))))))))))=",
"/)!)!!+)!!)+!!)=",
"/)!)!)!)!))!)))=",
"/)!)!!+)!*)!-!)=",
"/)!)!)))!))!)!)=",
"/!*)!)))!!)+!+)=",
"/))))))))))))))=",
"(===============",
"  #%%%%%%%%%%&  ",
"  $&&&&&&&&&&&  ",
"                "};
