/* XPM */
static char * KDECalc_xpm[] = {
"16 15 28 1",
".	c #000000",
"#	c None",
"a	c #0A0A0A",
"b	c #1C1C1C",
"c	c #222222",
"d	c #2B2B2B",
"e	c #333333",
"f	c #414141",
"g	c #4B4B4B",
"h	c #535353",
"i	c #5B5B5B",
"j	c #606060",
"k	c #6B6B6B",
"l	c #757575",
"m	c #7D7D7D",
"n	c #828282",
"o	c #8A8A8A",
"p	c #919191",
"q	c #9C9C9C",
"r	c #A1A1A1",
"s	c #AAAAAA",
"t	c #B2B2B2",
"u	c #BABABA",
"v	c #C0C0C0",
"w	c #D5D5D5",
"x	c #DEDEDE",
"y	c #EBEBEB",
"z	c #FFFFFF",
"zywruuuqvwywzzzk",
"zrmekhhdlmrkzvv.",
"rheszaazzbdekee.",
"ztjzzaszhkuvzzz.",
"znfzzhzsdluvzzz.",
"rgczzzzadipvvvv.",
"ztizzhzsdluvzzz.",
"zogzzaszhkuvzzz.",
"rhezsbbzzipvvvv.",
"zwrekkkglrwvzzz.",
"ztrduuuovwyvjjjc",
"rkkevvvvvvvvjzvf",
"zzzkzzzvzzzrnvfr",
"zvvezzzvzxvjvfn#",
"e..........cfr##"};
