/* XPM */
static char * KDEWord_xpm[] = {
"16 15 26 1",
".	c #000000",
"#	c #141414",
"a	c #1D1D1D",
"b	c #202020",
"c	c #3D3D3D",
"d	c #404040",
"e	c #484848",
"f	c #565656",
"g	c #5A5A5A",
"h	c #606060",
"i	c #737373",
"j	c #797979",
"k	c #848484",
"l	c #8C8C8C",
"m	c #999999",
"n	c #A0A0A0",
"o	c #AAAAAA",
"p	c #C1C1C1",
"q	c #C9C9C9",
"r	c #D5D5D5",
"s	c #DADADA",
"t	c #E5E5E5",
"u	c #E8E8E8",
"v	c #F6F6F6",
"w	c None",
"x	c #FFFFFF",
"whhhhhhhhhhhhhdw",
"whvurrssrruvxx.w",
"whtplkmmklpuxx.w",
"whrloxdcxxlrxx.w",
"whqjxx#oxflrxx.w",
"whqixxfxoensxx.w",
"whpixxxxahotxx.w",
"whqixxfxoensxx.w",
"whqjxx#oxflrxx.w",
"whrlxodcxxlrxx.w",
"whtplkmmklpghhbw",
"whvurrssrrugxpdw",
"whxxxxxxxxnkpdnw",
"whxxxxxxsphpdkww",
"wd........bdnwww"};
