/* XPM */
static char * Kernel2_xpm[] = {
"16 15 52 2",
"..	c None",
".#	c #4C3218",
".a	c #50361C",
".b	c #563C22",
".c	c #583E24",
".d	c #5B4127",
".e	c #5F452B",
".f	c #60462C",
".g	c #62482E",
".h	c #644B32",
".i	c #684E34",
".j	c #6B5137",
".k	c #6D5339",
".l	c #6D5945",
".m	c #70563C",
".n	c #72583E",
".o	c #755B41",
".p	c #756351",
".q	c #785E44",
".r	c #7A6046",
".s	c #7C6249",
".t	c #80664C",
".u	c #81684E",
".v	c #816E58",
".w	c #856B52",
".x	c #86735F",
".y	c #886E54",
".z	c #897969",
".A	c #8A7765",
".B	c #8B7865",
".C	c #8D7359",
".D	c #918071",
".E	c #92785E",
".F	c #957B61",
".G	c #987E64",
".H	c #9A8066",
".I	c #9D8369",
".J	c #A0866C",
".K	c #A88E74",
".L	c #AB9177",
".M	c #AE947A",
".N	c #B2987E",
".O	c #B69C82",
".P	c #B99F85",
".Q	c #BBA187",
".R	c #BEA48A",
".S	c #C1A78D",
".T	c #CBB197",
".U	c #CDB399",
".V	c #D1B79D",
".W	c #D8BEA4",
".X	c #E9CFB5",
"................................",
".................D.K.F..........",
".............C.t.n.r.s.w.z......",
"...........u.j.o.I.R.L.C.w.D....",
".........t.k.s.J.U.X.V.H.r.h....",
".......D.k.o.F.S.W.W.P.w.g.l....",
".......o.k.w.M.U.V.Q.F.o.c.p....",
".....D.k.r.H.P.T.O.G.s.f.e.D....",
".....o.o.C.J.N.M.E.m.f.b.c......",
"...D.n.s.G.J.I.C.n.d.a.h........",
"...x.m.w.F.F.t.k.f.#.h..........",
"...o.m.w.y.s.i.c.#.k............",
"...o.o.q.n.h.b.j.D..............",
"...s.u.h.c.o.A..................",
"...v.n.B........................"};
