/* XPM */
static char * Keymap2_xpm[] = {
"16 15 67 2",
"..	c None",
".#	c #22211C",
".a	c #272521",
".b	c #292623",
".c	c #2C2A27",
".d	c #363430",
".e	c #383633",
".f	c #3E3C38",
".g	c #413F3B",
".h	c #42403C",
".i	c #464441",
".j	c #4C4A46",
".k	c #4E4B48",
".l	c #504E4A",
".m	c #575551",
".n	c #585654",
".o	c #5D5B58",
".p	c #605E5B",
".q	c #62605C",
".r	c #666460",
".s	c #686662",
".t	c #6B6965",
".u	c #6D6B69",
".v	c #706E6A",
".w	c #74726E",
".x	c #767470",
".y	c #787673",
".z	c #7A7874",
".A	c #7E7C78",
".B	c #807E7A",
".C	c #84827E",
".D	c #868481",
".E	c #888682",
".F	c #8B8985",
".G	c #908E8A",
".H	c #93918D",
".I	c #969490",
".J	c #989692",
".K	c #9B9995",
".L	c #9F9D99",
".M	c #A19F9B",
".N	c #A4A29E",
".O	c #A6A4A0",
".P	c #A8A6A2",
".Q	c #ABA9A5",
".R	c #AEACA8",
".S	c #B0AEAA",
".T	c #B3B1AD",
".U	c #B7B5B1",
".V	c #B8B6B2",
".W	c #BCBAB6",
".X	c #BEBCB8",
".Y	c #C1BFBB",
".Z	c #C4C2BE",
".0	c #C6C4C0",
".1	c #C9C7C3",
".2	c #CAC8C4",
".3	c #CCCAC8",
".4	c #D0CECA",
".5	c #D2D0CC",
".6	c #D6D4D1",
".7	c #D9D7D3",
".8	c #DCDAD6",
".9	c #DFDDD9",
"#.	c #E0DEDA",
"##	c #E2E0DC",
"#a	c #E6E4E0",
"................................",
"................................",
".......6.E.C.z.z.C.B.C.E.P......",
".....3#..s.t.y.A.C.C.F.L.X.K....",
"....#a.9.r.x.B.C.F.G.K.T.U.u....",
".D.u.5#..B.D.G.H.I.K.P.V.T.k.b.u",
".u.M.8#..C.H.K.K.L.P.T.Y.2.j.g.i",
".n.Q.8##.D.K.N.N.Q.T.W.0.1.f.m.e",
".k.Q.7.8.O.N.V.W.X.Y.0.6.0.e.f.c",
".k.R.4.S.Z.0.2.4.4.4.4.3.H.d.f.#",
".i.W.Y.N.D.w.v.v.v.v.v.w.x.i.g.#",
".i.T.V.J.t.r.q.q.q.q.q.t.w.l.h.#",
".o.u.J.D.t.w.t.r.r.q.q.w.z.o.h.#",
".D.a.y.B.r.A.A.A.z.q.q.A.A.p.#.q",
"...n.k.h.h.h.h.h.h.h.h.h.h.l.n.."};
