/* XPM */
static char * prg2_xpm[] = {
"16 15 67 2",
"..	c None",
".#	c #200000",
".a	c #3D3B28",
".b	c #474D49",
".c	c #484F53",
".d	c #512611",
".e	c #565833",
".f	c #61615C",
".g	c #674412",
".h	c #694B33",
".i	c #6A3C0C",
".j	c #6B4016",
".k	c #6B6B6D",
".l	c #6C5116",
".m	c #6D4C16",
".n	c #6D4F18",
".o	c #706E53",
".p	c #724D16",
".q	c #747470",
".r	c #79775F",
".s	c #7C4F1B",
".t	c #85441E",
".u	c #8B5519",
".v	c #8F5421",
".w	c #941203",
".x	c #959E97",
".y	c #995E37",
".z	c #A06060",
".A	c #A35C21",
".B	c #A48E72",
".C	c #A74815",
".D	c #AC1B00",
".E	c #AD8E70",
".F	c #AE1600",
".G	c #B02104",
".H	c #B04816",
".I	c #B31607",
".J	c #B40D00",
".K	c #B71F04",
".L	c #B74618",
".M	c #B79575",
".N	c #B7A28C",
".O	c #B7B8B4",
".P	c #B8BCAB",
".Q	c #BA2D09",
".R	c #B9481C",
".S	c #B99C6E",
".T	c #BF360D",
".U	c #BF4210",
".V	c #C14412",
".W	c #C60000",
".X	c #C64B15",
".Y	c #C90000",
".Z	c #C9CCC3",
".0	c #D1D1CE",
".1	c #D4D4D3",
".2	c #D6D6C7",
".3	c #D6DFD0",
".4	c #DDC2AC",
".5	c #DDC7BA",
".6	c #E5E8E2",
".7	c #EAE9DB",
".8	c #F3ECF5",
".9	c #F5EEE1",
"#.	c #F7F2E5",
"##	c #F7F7F5",
"#a	c #FDFDFE",
"...Y.Y.Y.Y.Y.Y.Y.Y.Y.Y.Y.Y.Y.Y.z",
"...Y.Y.Y.Y.Y.Y.Y.Y.Y.Y.Y.Y.Y.Y.#",
"...Y.Y.Y.Y.Y.Y.Y.Y.Y.Y.Y.Y.Y.Y.#",
"...Y.Y.Y.Y.Y.Y.Y.Y.Y.Y.Y.Y.Y.Y.#",
"...Y.W.K.T.D.Q.U.D.T.G.F.X.V.w.#",
"...Y.Q.y.S.g.E.5.c.4.h.d.4.M.t.#",
"...I.i.7.o.r.Z.c#a.b.x.0.f.2.l.#",
"...H.N.Z.a.7.O.O.k##.0.P.e.9.j.#",
"...p#.#a.1#a.8.O.1.6.q.6.3.B.L.#",
"...C.n.m.v.l.p.u.l.p.A.l.s.R.J.#",
"...Y.Y.Y.Y.Y.Y.Y.Y.Y.Y.Y.Y.Y.Y.#",
"...Y.Y.Y.Y.Y.Y.Y.Y.Y.Y.Y.Y.Y.Y.#",
"...Y.Y.Y.Y.Y.Y.Y.Y.Y.Y.Y.Y.Y.Y.#",
"...Y.Y.Y.Y.Y.Y.Y.Y.Y.Y.Y.Y.Y.Y.#",
"...z.#.#.#.#.#.#.#.#.#.#.#.#.#.#"};
