/* XPM */
static char * License_xpm[] = {
"16 15 22 1",
" 	c None",
"!	c #616161",
"#	c #414141",
"$	c #FFFFFF",
"%	c #000000",
"&	c #929292",
"/	c #313131",
"(	c #3D3D3D",
")	c #C3C3C3",
"=	c #AAAAAA",
"+	c #595959",
"*	c #080808",
"-	c #494949",
"[	c #282828",
"]	c #141414",
"{	c #828282",
"}	c #7D7D7D",
"<	c #202020",
">	c #E3E3E3",
",	c #696969",
".	c #A2A2A2",
"|	c #DFDFDF",
" !!!!!!!!!!!!!# ",
" !$$$$$$$$$$$$% ",
" !$$$$&/()$$$$% ",
" !$$$)%$/%$$$$% ",
" !$$$=%=)+$$$$% ",
" !$$$$*%-$$$$$% ",
" !$$$+-[%]$$$$% ",
" !$$$%{$)%}$$$% ",
" !$$$=%%+<$$$$% ",
" !$$$$>%%=$$$$% ",
" !$$$=-$]*$!!!< ",
" !$$$,%$(($!$)# ",
" !$$$$,++$.{)#. ",
" !$$$$$$|)!)#{  ",
" #%%%%%%%%<#.   "};
