/* XPM */
static char * Linux_xpm[] = {
"16 15 36 1",
" 	c None",
"!	c #616161",
"#	c #000000",
"$	c #313131",
"%	c #828282",
"&	c #C5C5C5",
"/	c #795D08",
"(	c #EFD23D",
")	c #DB9A0C",
"=	c #A4730A",
"+	c #CEB210",
"*	c #D2A610",
"-	c #555555",
"[	c #B2B2B2",
"]	c #FBFBFB",
"{	c #E6E6E6",
"}	c #6D6D6D",
"<	c #F3F3F3",
">	c #494949",
",	c #0C0C0C",
".	c #F3C214",
"|	c #E6AD09",
"@	c #715504",
"~	c #E7A610",
"'	c #EBB210",
"?	c #EFBC10",
"0	c #EFEFEF",
"1	c #DFDFDF",
"2	c #DBA208",
"3	c #F5BE0A",
"4	c #FBC208",
"5	c #D79A0C",
"6	c #DDAE2D",
"7	c #EBB208",
"8	c #D29208",
"9	c #E3A608",
"       !##!     ",
"      !####!    ",
"      $%$&$#    ",
"      $#$#&#    ",
"      /(()=#    ",
"     !#+*=-#!   ",
"     #[]{{[##   ",
"    !#&{{{&%#   ",
"    #}]<]]]&>!  ",
"   !#&]{]]]],#  ",
"   ##]]{]]]]$#  ",
"  ..|#]{]]]|@|  ",
" ~'??|#0]]1|234 ",
" 25||6&]]1&|372 ",
"  6228#####889  "};
