/* XPM */
static char * log_xpm[] = {
"16 15 70 1",
" 	c None",
"!	c #616161",
"#	c #414141",
"$	c #FFFFFF",
"%	c #000000",
"&	c #61615D",
"/	c #BE9E71",
"(	c #B28452",
")	c #D2B69A",
"=	c #E3D2C2",
"+	c #F7EFEB",
"*	c #847155",
"-	c #AE824D",
"[	c #A47B49",
"]	c #B58E5D",
"{	c #C2A279",
"}	c #D2BE9E",
"<	c #E7DBC6",
">	c #5D411C",
",	c #694924",
".	c #7B5A33",
"|	c #8E693D",
"@	c #BA9463",
"~	c #BA9A6D",
"'	c #BE9669",
"?	c #AE8E65",
"0	c #968675",
"1	c #715D41",
"2	c #75593D",
"3	c #AA7D49",
"4	c #A67945",
"5	c #A27549",
"6	c #9C794B",
"7	c #967149",
"8	c #755935",
"9	c #3D2810",
"A	c #1C1408",
"B	c #867D75",
"C	c #6D6559",
"D	c #554D41",
"E	c #7D6141",
"F	c #9E7549",
"G	c #8E6539",
"H	c #825D35",
"I	c #715535",
"J	c #694D31",
"K	c #553D24",
"L	c #140C04",
"M	c #DFDFDF",
"N	c #969494",
"O	c #757571",
"P	c #A68659",
"Q	c #7D5D39",
"R	c #65513D",
"S	c #4D3520",
"T	c #392818",
"U	c #312014",
"V	c #F7F7F5",
"W	c #8E6D49",
"X	c #797979",
"Y	c #A2A2A2",
"Z	c #BABABA",
"a	c #FBFBF7",
"b	c #DBD7C6",
"c	c #CECECE",
"d	c #E7E7E7",
"e	c #202020",
"f	c #EFEBE7",
"g	c #C2C2C2",
"h	c #828282",
" !!!!!!!!!!!!!# ",
" !$$$$$$$$$$$$% ",
" !$$$$$$$$$$$$% ",
" &/()=+$$$$$$$% ",
" *-[]]-]{}<$$$% ",
" >,.|[((]@~'?0% ",
" 1..2|34566789A ",
" !BCDEFGH.IJK9L ",
" !MNOPQJRSSTUD% ",
" !$V@WRXYZYNXX% ",
" !$ab*XcdV$!!!e ",
" !$$$f$$$V$!$g# ",
" !$$$$$$$$Yhg#Y ",
" !$$$$$$Mg!g#h  ",
" #%%%%%%%%e#Y   "};
