/* XPM */
static char * m2_xpm[] = {
"16 15 16 1",
"       c None",
".	c #000000",
"#	c #0000C6",
"a	c #202020",
"b	c #3035D0",
"c	c #404040",
"d	c #606060",
"e	c #6671DA",
"f	c #808080",
"g	c #A0A0A0",
"h	c #B0C7CA",
"i	c #B8B8EF",
"j	c #C0C0C0",
"k	c #CEE5E8",
"l	c #D8EFF2",
"m	c #FFFFFF",
"dddddddddddddddc",
"dllllllllllllll.",
"dlcllllllllllcl.",
"dmmmmmmmmmmmmmm.",
"dmcmmmmmmmmmmcm.",
"dlll#eb#eb#elll.",
"dlcl########lcl.",
"dmmm##i##i##mmm.",
"dmcm##m##m##mcm.",
"dlll##l##l##lll.",
"dlcl##l##l##ddda",
"dmmmmmmmmmmmdmjc",
"dmcmmmmmmmmgfjcg",
"dllllllllkhdjcf ",
"c..........acg  "};
