/* XPM */
static char * Makefile_xpm[] = {
"16 15 16 1",
" 	c None",
"!	c #616161",
"#	c #414141",
"$	c #DBEFF3",
"%	c #000000",
"&	c #FFFFFF",
"/	c #F7BA7D",
"(	c #BA7D51",
")	c #EF7100",
"=	c #7D4124",
"+	c #202020",
"*	c #C2C2C2",
"-	c #A2A2A2",
"[	c #828282",
"]	c #CEE7EB",
"{	c #B2C6CA",
"!!!!!!!!!!!!!!!#",
"!$$$$$$$$$$$$$$%",
"!$#$$$$$$$$$$#$%",
"!&&&&&&/(&&&&&&%",
"!&#&&&/))(&&&#&%",
"!$$$$/))))($$$$%",
"!$#$/)=)=))($#$%",
"!&&&()%%%%)=&&&%",
"!&#&&())))=&&#&%",
"!$$$$$())=$$$$$%",
"!$#$$$$(=$$$!!!+",
"!&&&&&&&&&&&!&*#",
"!&#&&&&&&&&-[*#-",
"!$$$$$$$$]{!*#[ ",
"#%%%%%%%%%%+#-  "};
