/* XPM */
static char * man2_xpm[] = {
"16 15 50 2",
"..	c None",
".#	c #141612",
".a	c #2C2F28",
".b	c #34382F",
".c	c #3C4036",
".d	c #404439",
".e	c #45493E",
".f	c #484C40",
".g	c #50534B",
".h	c #505547",
".i	c #585D4F",
".j	c #5B6152",
".k	c #5C5F57",
".l	c #5D605A",
".m	c #60625C",
".n	c #646A5A",
".o	c #686F5E",
".p	c #69705E",
".q	c #6A6D67",
".r	c #6C7263",
".s	c #70726D",
".t	c #707865",
".u	c #73786C",
".v	c #787A74",
".w	c #78806C",
".x	c #798071",
".y	c #7C7E78",
".z	c #7E807C",
".A	c #7E8871",
".B	c #808080",
".C	c #82847E",
".D	c #849076",
".E	c #898B85",
".F	c #8C8C8A",
".G	c #8F938A",
".H	c #909090",
".I	c #90928E",
".J	c #90A080",
".K	c #989B94",
".L	c #999998",
".M	c #9DA099",
".N	c #A0A0A0",
".O	c #A0A19E",
".P	c #A8A8A6",
".Q	c #B0B1B0",
".R	c #B8B8B8",
".S	c #C1C2C1",
".T	c #CCCCCC",
".U	c #D0D0D0",
".V	c #D8D8D8",
"...........M.K.G.E.C.x.u.r.n.M..",
".........M.w.D.A.w.w.w.w.w.p.l..",
".........n.J.D.a.o.b.w.w.w.c.B..",
".......M.x.D.A.j.w.#.w.w.j.l.H.n",
".......n.J.D.w.w.d.e.w.w.c.B.N.c",
".....M.x.D.A.w.j.n.w.w.j.l.H.n.C",
".....r.J.D.w.t.r.w.w.w.c.B.N.c..",
"...M.x.D.A.w.f.j.w.w.j.l.H.n.C..",
"...u.J.D.w.w.w.w.w.w.c.B.N.c....",
".M.x.D.A.w.w.w.w.w.j.l.H.n.C....",
".m.c.d.f.h.i.j.n.r.c.B.N.c......",
".c.N.L.F.z.s.q.l.g.l.H.n.C......",
".c.N.V.U.T.S.S.R.Q.H.N.c........",
".C.k.q.y.E.I.O.Q.S.N.n.C........",
".......P.O.I.E.v.s.m.g.........."};
