/* XPM */
static char * Maya_xpm[] = {
"16 15 58 2",
"..	c #000000",
".#	c #1B0303",
".a	c #1B0327",
".b	c #2F0303",
".c	c #350505",
".d	c #450303",
".e	c #4E0606",
".f	c #510909",
".g	c #574646",
".h	c #5A0505",
".i	c #6C0C0C",
".j	c #6F0707",
".k	c #740D0D",
".l	c #7C4646",
".m	c #824A4A",
".n	c #830B0B",
".o	c #8A1010",
".p	c #9A0E0E",
".q	c #9C5D5D",
".r	c #9E1111",
".s	c #A31313",
".t	c #A60808",
".u	c #AB1111",
".v	c #AB0F0F",
".w	c #AE5F5F",
".x	c #B01414",
".y	c #B10D0D",
".z	c #B41B1B",
".A	c #B16262",
".B	c #B30505",
".C	c #BE0000",
".D	c #C46363",
".E	c #C7C1C1",
".F	c #C8C2CB",
".G	c #CC4444",
".H	c #CAC4C4",
".I	c #CB6565",
".J	c #CE6969",
".K	c #CEAEAE",
".L	c #CF3F3F",
".M	c #D04343",
".N	c #D35C5C",
".O	c #D55656",
".P	c #D58282",
".Q	c #D7AFAF",
".R	c #DD8181",
".S	c #DDDDDD",
".T	c #DF7F7F",
".U	c #E08080",
".V	c #E2C4C4",
".W	c #E5B3B3",
".X	c #E6ADAD",
".Y	c #EDCACA",
".Z	c #EFBFBF",
".0	c #EFC0C0",
".1	c #F0C2C2",
".2	c #F3F2F2",
".3	c #FEFEFE",
".C.C.........................C.C",
".1.G.C.d.#.g.E.#.#.#.#.#.d.C.C.C",
".3.Z.G.C.m.2.3.c.c.c.c.h.C.C.C.C",
".3.C.2.U.2.j.3.l.3.m.j.M.3.L.C.C",
".3.C.M.S.M.C.3.i.i.3.M.3.C.C.C.C",
".3.C.C.X.C.Z.3.V.o.R.3.R.B.C.C.C",
".3.C.C.u.C.C.C.R.0.O.3.O.v.3.C.C",
".3.y.y.z.P.3.1.M.S.C.3.z.J.3.I.x",
".3.u.u.z.Y.N.0.C.3.C.3.z.W.W.W.u",
".3.p.p.s.S.D.N.U.3.C.3.s.3.r.3.r",
".3.n.n.o.A.S.3.T.1.t.3.w.3.V.Q.w",
".3.i.i.i.i.i.3.C.C.k.3.i.i.i.q.K",
".3.e.e.f.f.f.3.3.3.3.3.3.3.3.3.3",
".3.c.c.c.c.c.c.e.e.c.3.c.c.c.c.c",
".F.a.a.#.#.#.#.b.b.#.H.#.#.a.a.a"};
