/* XPM */
static char * midi_xpm[] = {
"16 15 15 1",
"j	c #BEBEBE",
"r	c #616161",
"a	c #C3C3C3",
"#	c #CCCCCC",
"m	c #7D7D7D",
"d	c #DEDEDE",
"q	c #929292",
"h	c #393939",
"n	c #A2A2A2",
"l	c #595959",
"i	c #000000",
"g	c #D6D6D6",
"o	c #8E8E8E",
".	c #353535",
"b	c #B6B6B6",
"###############a",
"#gggggggggggggg#",
"#gddborhigddddg#",
"##ji.lmniaaaaa##",
"#gdijqrhidddidg#",
"aaai.lmniaaaiiaa",
"#gdiddddidddiqr#",
"aaaiaaaaiaaaiaaa",
"#gdiddddidddidg#",
"aaaiaariiaaaiaaa",
"#riiddiirdddidg#",
"#iiraaaaaariia##",
"#dddddddddiirdd#",
"#gggggggggggggg#",
"a##############a"};
