/* XPM */
static char * Mixer_xpm[] = {
"16 15 10 1",
" 	c None",
"c	c #6D6D6D",
"i	c #222222",
".	c #828282",
"d	c #3A3A3A",
"a	c #414141",
"f	c #A2A2A2",
"b	c #000000",
"h	c #C2C2C2",
"j	c #292929",
"..............d ",
".aaaaaaaaaaaaab ",
".aabaaabaaabaab ",
".aabaacccdabaab ",
".aabaa...jabaab ",
".aabaafffjabaab ",
".aabaahhhicccdb ",
".aabaadbij...jb ",
".acccdabaafffjb ",
".a...jabaahhhib ",
".afffjabaadbijb ",
".ahhhiabaaabaab ",
".adbijabaaabaab ",
".aaaaaaaaaaaaab ",
"dbbbbbbbbbbbbbb "};
