/* XPM */
static char * mod_xpm[] = {
"16 15 56 1",
" 	c None",
"!	c #CBCBCB",
"#	c #E7E7E7",
"$	c #D4D4D4",
"%	c #AEAEAE",
"&	c #8A8A8A",
"/	c #6A6A6A",
"(	c #4B4B4B",
")	c #000000",
"=	c #ECECEC",
"+	c #3B3B3B",
"*	c #9C9C9C",
"-	c #B2B2B2",
"[	c #424242",
"]	c #DDDDDD",
"{	c #FEFEFE",
"}	c #AAB6AA",
"<	c #BACABA",
">	c #353535",
",	c #F5F5F5",
".	c #CED2CE",
"|	c #6D966D",
"@	c #A2BAA2",
"~	c #9CAE9C",
"'	c #CCDDCC",
"?	c #181818",
"0	c #006100",
"1	c #B6BEB6",
"2	c #A5B5A5",
"3	c #86A686",
"4	c #96B296",
"5	c #8AAE8A",
"6	c #5D8A5D",
"7	c #82AA82",
"8	c #4B824B",
"9	c #75A675",
"A	c #3B843B",
"B	c #E7F3E7",
"C	c #8EA28E",
"D	c #759E75",
"E	c #619661",
"F	c #75AA75",
"G	c #6DA66D",
"H	c #797979",
"I	c #636963",
"J	c #418241",
"K	c #AAC2AA",
"L	c #242424",
"M	c #0C690C",
"N	c #CEE3CE",
"O	c #656565",
"P	c #E3EBE3",
"Q	c #0C0C0C",
"R	c #C4C4C4",
"S	c #5D5D5D",
"T	c #D7DFD7",
"       !        ",
"      !#$       ",
"   %&/()=!      ",
"  )+/*!)=$   !  ",
"  )-*+[)==]$]{] ",
"  )[/(})<>,,{){$",
" !)&.|@)~>'?'0{#",
"!1)~234)56789AB{",
"22)}C2D)E587AFG0",
"!!)!HI))JKL'MNG{",
"O))$H))IJ',PQ{{$",
"))OR$]ST[==,Q{$ ",
"    R$]#[=$${$  ",
"     R!#[=$ !   ",
"       !=$      "};
