/* XPM */
static char * Mouse3_xpm[] = {
"16 15 26 2",
"..	c None",
".#	c #3B3B3B",
".a	c #525252",
".b	c #558955",
".c	c #5D5D5D",
".d	c #6B6B6B",
".e	c #747474",
".f	c #7C7C7C",
".g	c #828282",
".h	c #8B8B8B",
".i	c #949494",
".j	c #9B9B9B",
".k	c #A2A2A2",
".l	c #AAAAAA",
".m	c #B2B2B2",
".n	c #BBBBBB",
".o	c #C2C2C2",
".p	c #CBCBCB",
".q	c #C9B3A7",
".r	c #D3D3D3",
".s	c #D6E7D6",
".t	c #DBDBDB",
".u	c #E2E2E2",
".v	c #EBEBEB",
".w	c #F2F2F2",
".x	c #FAFAFA",
"................................",
"...........h.i..................",
".......e.g.j.u.i.e..............",
".....k.v.w.p.e.k.v.t.j..........",
"...k.n.j.j.h.o.q.t.u.t.l........",
".i.u.w.x.n.n.s.b.k.u.t.r.m......",
".e.k.r.o.i.x.w.v.t.u.t.r.p.k....",
".g.n.j.g.t.w.v.v.u.t.r.p.o.o.i..",
"...h.n.n.h.n.v.u.u.t.r.p.o.o.n.f",
".....h.k.o.j.k.t.t.r.p.o.o.n.m.g",
".......l.g.n.m.h.p.r.p.o.o.n.m.g",
"...........g.j.m.i.m.o.o.n.m.k.e",
"...............f.j.l.j.h.i.g.a.#",
"...................h.f.d.d.c.e..",
"................................"};
