/* XPM */
static char * mov3_xpm[] = {
"16 15 42 1",
".	c #000000",
"#	c None",
"a	c #404040",
"b	c #5C2E00",
"c	c #808080",
"d	c #867349",
"e	c #8B784D",
"f	c #8F7A50",
"g	c #927E53",
"h	c #958055",
"i	c #998459",
"j	c #9D885C",
"k	c #9F651F",
"l	c #A18B5F",
"m	c #A46C2A",
"n	c #A3641C",
"o	c #A37E48",
"p	c #A48D62",
"q	c #A7834D",
"r	c #A79165",
"s	c #A89165",
"t	c #AA5500",
"u	c #AA671E",
"v	c #AA712F",
"w	c #AB5906",
"x	c #AC9569",
"y	c #AC7E43",
"z	c #AD7532",
"A	c #AF986D",
"B	c #B29B6E",
"C	c #B48657",
"D	c #B48658",
"E	c #B69E71",
"F	c #BBA275",
"G	c #BEA679",
"H	c #C2A87D",
"I	c #C6AD80",
"J	c #C9945F",
"K	c #D4AA7F",
"L	c #E9D4BF",
"M	c #F4E9DF",
"N	c #FFFFFF",
"##.#a........a#.",
"##...ddefghij...",
"##.#adefghijla#.",
"Dtbbtktntmtmp...",
"tNJJMKNKNtNwsa#.",
"tNNNMNtMLKLux...",
"tNJJMNtMJMJyBa#.",
"tNttMKNKtNt.....",
"DtbCtotqvtzEFa#.",
"##...prxxBEFF...",
"##.#asxxBEFFHac.",
"##...xABEFGH...a",
"##.#aABEFGHII.a#",
"##...BEFGHIc..c#",
"##.#a.......a###"};
