/* XPM */
static char * mov3_xpm[] = {
"16 15 44 2",
".#	c None",
"..	c #000000",
".a	c #110E09",
".b	c #14110C",
".c	c #181818",
".d	c #1D3B5B",
".e	c #3367A0",
".f	c #35592B",
".g	c #3975B6",
".h	c #404040",
".i	c #443B26",
".j	c #4C412C",
".k	c #554A34",
".l	c #5D9D4B",
".m	c #608080",
".n	c #616161",
".o	c #69B255",
".p	c #6C2114",
".q	c #725F1F",
".r	c #7B6A44",
".s	c #808080",
".t	c #816F49",
".u	c #8E9979",
".v	c #8F7A50",
".w	c #927E53",
".x	c #958055",
".y	c #998459",
".z	c #9D885C",
".A	c #A18B5F",
".B	c #A48D62",
".C	c #A89165",
".D	c #AA8060",
".E	c #AC9569",
".F	c #AF986D",
".G	c #B29A6E",
".H	c #B69E71",
".I	c #BBA275",
".J	c #BD3A24",
".K	c #BEA679",
".L	c #C2A87D",
".M	c #C0C0C0",
".N	c #C6AD80",
".O	c #C8A736",
".P	c #D74128",
".#.#...#.h.................h.#..",
".#.#.......a.i.r.v.w.x.y.z......",
".#.c.p.J.D.O.q.M.t.x.y.z.A.h.#..",
".n.p.P.P.D.q...q.j.y.z.A.B......",
".c.J.P.P.q...q.O.b.z.B.B.C.h.#..",
"...D.D.f.M.q.u.u...B.B.C.E......",
".c.l.o.o.d.g.g.e.b.B.C.E.G.h.#..",
".n.f.o.o.m.g.g.d................",
".#.c.f.l.m.e.d.b.k.E.G.H.I.h.#..",
".#.#.......b.k.k...G.H.I.I......",
".#.#...#.h.C.E.E.G.H.I.I.L.h.s..",
".#.#.......E.F.G.H.I.K.L.......h",
".#.#...#.h.F.G.H.I.K.L.N.N...h.#",
".#.#.......G.H.I.K.L.N.s.....s.#",
".#.#...#.h...............h.#.#.#"};
