/* XPM */
static char * mp3_xpm[] = {
"16 15 15 1",
" 	c None",
"!	c #929292",
"#	c #6D4100",
"$	c #616161",
"%	c #B27100",
"&	c #FFA220",
"/	c #000000",
"(	c #FFB241",
")	c #FFA200",
"=	c #925900",
"+	c #6D6D6D",
"*	c #494949",
"-	c #DB8A00",
"[	c #242424",
"]	c #FFC261",
"            !#$ ",
"           $%&/ ",
"         !#(&#! ",
"        $%()=+  ",
"      !#)()%*   ",
"     $%)()-[    ",
"   !#)]]())%$   ",
"   #)))())))#   ",
"   $#%]))))#!   ",
"    [()))%$     ",
"   *()))#!      ",
"  +())%$        ",
" !())#!         ",
" /)%$           ",
" $#!            "};
