/* XPM */
static char * mpeg2_xpm[] = {
"16 15 39 1",
".	c #000000",
"#	c #000075",
"a	c #000080",
"b	c None",
"c	c #12124D",
"d	c #1F1F8F",
"e	c #333370",
"f	c #3C3478",
"g	c #3F3F9F",
"h	c #404040",
"i	c #42397D",
"j	c #454580",
"k	c #473E81",
"l	c #483E81",
"m	c #4C4184",
"n	c #52488A",
"o	c #6767A2",
"p	c #6B5C6C",
"q	c #6F6070",
"r	c #756474",
"s	c #7C6B7A",
"t	c #7F788D",
"u	c #7F7FBF",
"v	c #808080",
"w	c #81707F",
"x	c #867483",
"y	c #887684",
"z	c #8D7B8A",
"A	c #927E8D",
"B	c #94808F",
"C	c #978391",
"D	c #998594",
"E	c #9E8997",
"F	c #9F9FCF",
"G	c #A28D9B",
"H	c #A8919F",
"I	c #A994A1",
"J	c #BFBFDF",
"K	c #FFFFFF",
"bb.bh........hb.",
"bb...ppqrrssw...",
"bb.bhpqrrsswxhb.",
"oaccafaaiaalac..",
"aKFFKaKKgKKFKJe.",
"aKKKKaKuFKFKada.",
"aKFFKaKKgKgKaKa.",
"aKaaKaKaaKKFKKa.",
"oacjakammaanaa#.",
"bb...yzzACDEG...",
"bb.bhzzADDEGGhv.",
"bb...ABDDGGI...h",
"bb.bhBDDGGIIt.hb",
"bb...DDGGHIv..vb",
"bb.bh.......hbbb"};
