/* XPM */
static char * NetApple_xpm[] = {
"16 15 75 1",
" 	c None",
"!	c #65EF59",
"#	c #008A00",
"$	c #828282",
"%	c #A2A2A2",
"&	c #41D231",
"/	c #04BE00",
"(	c #10B204",
")	c #00AE00",
"=	c #E7E779",
"+	c #E7FBA6",
"*	c #FFFFB6",
"-	c #FFFB2D",
"[	c #FFF710",
"]	c #FBEB0C",
"{	c #F7CA20",
"}	c #EBB228",
"<	c #C68E2D",
">	c #A26D31",
",	c #FFE731",
".	c #FFFBF3",
"|	c #FFEB96",
"@	c #AA7524",
"~	c #693D1C",
"'	c #FD6300",
"?	c #FFCA96",
"0	c #F76100",
"1	c #E76100",
"2	c #D25904",
"3	c #C2590C",
"4	c #AE5D18",
"5	c #613110",
"6	c #A64914",
"7	c #DE0000",
"8	c #F35561",
"9	c #CE0000",
"A	c #BE0000",
"B	c #AA0000",
"C	c #820C10",
"D	c #792D39",
"E	c #F31882",
"F	c #F73186",
"G	c #F30C6D",
"H	c #EB0861",
"I	c #DF0C5D",
"J	c #CE145D",
"K	c #B61859",
"L	c #9E1C55",
"M	c #8A2461",
"N	c #653165",
"O	c #C686AE",
"P	c #B62892",
"Q	c #C61492",
"R	c #B60C86",
"S	c #B6207D",
"T	c #9E2071",
"U	c #8A2886",
"V	c #792482",
"W	c #75416D",
"X	c #616161",
"Y	c #9A82B2",
"Z	c #203DAE",
"a	c #00008A",
"b	c #594565",
"c	c #202020",
"d	c #B2B2B6",
"e	c #414141",
"f	c #DFDFDF",
"g	c #C6C6C6",
"h	c #CECECE",
"i	c #D7D7D7",
"j	c #9A9A9A",
"k	c #AAAAAA",
"l	c #929292",
"m	c #797979",
"        !#$     ",
"       !#$%     ",
"    &/(#$/)#%   ",
"   =+*-[]{}<>%  ",
"   ,.|-[]{}@~$  ",
"   '?'012345$%  ",
"   '?'012365%   ",
"   787779ABCD%  ",
"   EFGHIJKLMN$  ",
"   OPQRSTUVWX$  ",
"    YZabcZaX$%  ",
"     %$de$$%%   ",
"       fX       ",
"ghiffffjjXfffihg",
"klmXXXjXXXXXXmlk"};
