/* XPM */
static char * NetAmiga_xpm[] = {
"16 15 22 1",
" 	c None",
"!	c #CECECE",
"#	c #E7E7E7",
"$	c #C28282",
"%	c #FFFFFF",
"&	c #FFAAAA",
"/	c #FF5555",
"(	c #BE0000",
")	c #B6AAAA",
"=	c #FF0000",
"+	c #EF0000",
"*	c #9E6161",
"-	c #7D0000",
"[	c #414141",
"]	c #DFDFDF",
"{	c #616161",
"}	c #C6C6C6",
"<	c #D7D7D7",
">	c #9A9A9A",
",	c #AAAAAA",
".	c #929292",
"|	c #797979",
"                ",
"                ",
"       !#$      ",
"    !#%&/()     ",
"   %&/===+*     ",
"   #/=====-     ",
"   !&=====()    ",
"    %=====+*    ",
"    #/===+(-    ",
"    !&+(-*)     ",
"     $*)[       ",
"       ]{       ",
"       ]{       ",
"}!<]]]]>>{]]]<!}",
",.|{{{>{{{{{{|.,"};
