/* XPM */
static char * NetHD_xpm[] = {
"16 15 76 1",
" 	c None",
"!	c #EFE3E3",
"#	c #DFBAC6",
"$	c #000000",
"%	c #AA9692",
"&	c #DFCAB2",
"/	c #EFCEAE",
"(	c #DFBA9A",
")	c #AA8675",
"=	c #3D2D3D",
"+	c #E3D2D7",
"*	c #DFB2C6",
"-	c #F3DDB6",
"[	c #EFD7B2",
"]	c #EFCAA6",
"{	c #EFC29E",
"}	c #EFBC9A",
"<	c #EFB296",
">	c #AE9675",
",	c #FBEFDB",
".	c #FFFFFF",
"|	c #F3D2A2",
"@	c #F3CA9E",
"~	c #EFB49A",
"'	c #A67979",
"?	c #828282",
"0	c #DFDFDF",
"1	c #B27D5D",
"2	c #FBDFC2",
"3	c #EFAE9A",
"4	c #DB9E96",
"5	c #C6C6C6",
"6	c #D2CECA",
"7	c #EB8E55",
"8	c #EFA68E",
"9	c #EFA696",
"A	c #E3BAC6",
"B	c #D29ACA",
"C	c #FBE392",
"D	c #F7DD94",
"E	c #E77914",
"F	c #F3A282",
"G	c #E39279",
"H	c #DBAAC6",
"I	c #D28AB2",
"J	c #AEA28A",
"K	c #FBE7A4",
"L	c #F7D78E",
"M	c #F7BA69",
"N	c #F3A651",
"O	c #F7AE79",
"P	c #F7A273",
"Q	c #AE6D5D",
"R	c #CEBEC2",
"S	c #D7A2C6",
"T	c #7D656D",
"U	c #FBEFB6",
"V	c #FBDB92",
"W	c #FBCE82",
"X	c #F7BE79",
"Y	c #F7AE71",
"Z	c #D79EC6",
"a	c #AE9E8E",
"b	c #E7CA8A",
"c	c #FBD282",
"d	c #E7BA75",
"e	c #AE795D",
"f	c #5D515D",
"g	c #414141",
"h	c #616161",
"i	c #CECECE",
"j	c #D7D7D7",
"k	c #9A9A9A",
"l	c #AAAAAA",
"m	c #929292",
"n	c #797979",
"                ",
" !#$$$$%&/()$== ",
" +*$$$--[]{}<$= ",
" +*$$>,.|@}~~'= ",
" +*$?.012.2<34$ ",
" +*.051 .6.789$ ",
" +AB51CD2.E7FG$ ",
" +*HIJKDLMNOPQ$ ",
" RHST$UKVWXYP== ",
" =ZBT$$abcde$== ",
" fTTT===$$$$==f ",
"       0g       ",
"       0h       ",
"5ij0000kkh000ji5",
"lmnhhhkhhhhhhnml"};
