/* XPM */
static char * NetSGI_xpm[] = {
"15 15 12 1",
" 	c None",
"!	c #929292",
"#	c #000000",
"$	c #313131",
"%	c #616161",
"&	c #AAAAAA",
"/	c #797979",
"(	c #DFDFDF",
")	c #C6C6C6",
"=	c #CECECE",
"+	c #D7D7D7",
"*	c #9A9A9A",
"    !## ##!    ",
"   #$ # # $#   ",
"   #! # # !#   ",
"    $#% %#$    ",
"  ##% %#% %##  ",
"  # %#   #% #  ",
"  # #!# # # #  ",
"  ## ## ## ##  ",
"    # #&# #    ",
"   #% #!# %#   ",
"    %##/##%    ",
"      (%       ",
"      (%       ",
")=+(((**%(((+=)",
"&!/%%*%%%%%%/!&"};
