/* XPM */
static char * NetSun_xpm[] = {
"16 15 17 1",
" 	c None",
"!	c #828282",
"#	c #FFFFFF",
"$	c #41007D",
"%	c #713D9E",
"&	c #CEBEDF",
"/	c #A27DBE",
"(	c #414141",
")	c #DFDFDF",
"=	c #616161",
"+	c #C6C6C6",
"*	c #CECECE",
"-	c #D7D7D7",
"[	c #9A9A9A",
"]	c #AAAAAA",
"{	c #929292",
"}	c #797979",
"       !!       ",
"      !##!      ",
"     !#$$#!     ",
"    !#%$&$#!    ",
"   !#$&%$&%#!   ",
"  !#$&$//%$$#!  ",
"  !#$$%//$&$#(  ",
"   !#%&$%&$#(   ",
"    !#$&$%#(    ",
"     !#$$#(     ",
"      !##(      ",
"       )(       ",
"       )=       ",
"+*-))))[[=)))-*+",
"]{}===[======}{]"};
