/* XPM */
static char * NetWindows_xpm[] = {
"16 15 42 1",
" 	c None",
"!	c #828282",
"#	c #414141",
"$	c #AAAAAA",
"%	c #C6A29A",
"&	c #D2614D",
"/	c #000000",
"(	c #202020",
")	c #141414",
"=	c #CA8275",
"+	c #D74128",
"*	c #3D2D28",
"-	c #411C14",
"[	c #2D6520",
"]	c #8E2D1C",
"{	c #69B255",
"}	c #59AA45",
"<	c #9EAEBE",
">	c #20351C",
",	c #598ABE",
".	c #7D9EBE",
"|	c #3979BE",
"@	c #283139",
"~	c #182839",
"'	c #284D75",
"?	c #2D5520",
"0	c #3D7131",
"1	c #3975B6",
"2	c #49411C",
"3	c #A68E31",
"4	c #7D6920",
"5	c #51657D",
"6	c #FFD745",
"7	c #9A9A9A",
"8	c #555555",
"9	c #DFDFDF",
"A	c #616161",
"B	c #C6C6C6",
"C	c #CECECE",
"D	c #D7D7D7",
"E	c #929292",
"F	c #797979",
"  !!            ",
"   !#!$         ",
"  %%&!#/#()#!$  ",
" !!$=%+*-++-[/  ",
"  !#!+=/]++/{}/ ",
"  < !/#/(-]>}}/ ",
"!! ,.|@~|'//?0# ",
" !#<|./'1'234>! ",
"  !/|5/~'~366/  ",
"    !/#///363#  ",
"       78!8/2!  ",
"       9A  !/   ",
"       9A       ",
"BCD999977A999DCB",
"$EFAAA7AAAAAAFE$"};
