/* XPM */
static char * o2_xpm[] = {
"16 15 19 1",
".	c None",
"#	c #294144",
"a	c #2F5F65",
"b	c #3D6166",
"c	c #477177",
"d	c #48787E",
"e	c #508086",
"f	c #528288",
"g	c #5B8B91",
"h	c #6C9CA2",
"i	c #74A4AA",
"j	c #85B5BB",
"k	c #89B9BF",
"l	c #8CBCC2",
"m	c #91C1C7",
"n	c #96C6CC",
"o	c #A4D4DA",
"p	c #B9E9EF",
"q	c #C7F7FD",
"........pfb.....",
"........bfc.....",
"....npppkf#pppn.",
"....pjjlighjjf#.",
"....pjfffffffb#.",
".qpbnifffffbcb#.",
".pfffffffffc....",
".nc#fhfffffgjmf.",
"....ojfffffffb#.",
"....phbbbebbbb#.",
"....n###df#####.",
"........nfb.....",
"........pfc.....",
"........nba.....",
"................"};
