/* XPM */
static char * Archive2_xpm[] = {
"16 15 72 2",
"OD	c None",
".z	c #9E7959",
".K	c #7B634D",
".Y	c #080404",
"#t	c #694D31",
".o	c #AEA29A",
".1	c #9A6D45",
".X	c #4B3122",
".R	c #180C0C",
".#	c #BCB2AC",
".u	c #5D4535",
".r	c #826549",
".c	c #A68671",
".W	c #866B51",
".t	c #694D3A",
".A	c #8E6D51",
".a	c #B69A82",
".n	c #92755B",
".U	c #5D4931",
"#F	c #957A61",
"#m	c #A68A6D",
"#f	c #9A7D64",
".H	c #312018",
"#l	c #AE9275",
".C	c #B4AEAA",
".F	c #51392D",
".e	c #412820",
".G	c #413120",
".0	c #927D6D",
".x	c #100C08",
".S	c #8E7159",
".O	c #9E836A",
".k	c #A4856A",
".j	c #2D1C18",
"#w	c #311C18",
".7	c #AA8E72",
"#x	c #49352D",
".q	c #513D24",
".J	c #967555",
".P	c #A68261",
".E	c #000000",
".b	c #352D20",
".w	c #616161",
"#d	c #A27D5B",
".5	c #080808",
".y	c #8E796D",
".9	c #453528",
"#E	c #101010",
"#G	c #8A6D59",
".M	c #201010",
".Z	c #967561",
".l	c #A68B72",
".L	c #8A7155",
"#z	c #AD9379",
".T	c #6D5949",
".D	c #94795D",
".Q	c #AA8669",
"#r	c #BEA68E",
".i	c #513D31",
".p	c #755C45",
"#j	c #795D45",
"#b	c #392D1C",
"#q	c #715131",
"#B	c #B6A69A",
"#y	c #9E8E7D",
"#k	c #14100C",
".m	c #1C100C",
".4	c #181814",
".f	c #866141",
"#n	c #28201C",
".g	c #B29279",
"#u	c #514128",
"ODOD.#.a.7.c#fODODODOD.CODODODOD",
"#r.7.k#f.Z.S.W.yODOD.k.n.oODODOD",
".l#F.r.p.t.u.i#x.0.P.P.z.A#yODOD",
".C#G.t.F.e.H.m.j.K.7#d#d.z.A.WOD",
"OD.t.X#w.M.R.x#E.U.k#z.P#d.z.A.W",
"OD.X.m.R.Y.Y.5#E.G.1#d.g.Q.P.J.p",
"OD.O#j.E.E.E.5#E#b#q.1#d.7.7.pOD",
".##z#F#j.E.E.5#E#b.q.f#f.7.pODOD",
"#B#z.O.L#j.E.5#E#b.p.D#l#l#m.pOD",
"OD#B.l#f.W#j#k.4.T.O#z#l#m.O.n.p",
"OD#t#z.l#F.W#j.k#z#z#m#f#F.D#qOD",
"ODOD#t#z.O.W.9#n#z.O.D.K#q#nODOD",
"ODODOD#t#z.9#u.b#n#F#q#n.wODODOD",
"ODODODOD#t#t#q.9.b#n.wODODODODOD",
"ODODODODOD#q#q.9.wODODODODODODOD"};
