/* XPM */
static char * pcx_xpm[] = {
"16 15 12 1",
" 	c None",
"!	c #FFFFFF",
"#	c #DFDFDF",
"$	c #AAAAAA",
"%	c #9A9A9A",
"&	c #555555",
"/	c #414141",
"(	c #202020",
")	c #828282",
"=	c #000000",
"+	c #BEBEBE",
"*	c #7D7D7D",
"                ",
"  !##########$  ",
"  #%%%%%%%%%%&  ",
"///////////////(",
"/))))))))))))))=",
"/)!!+)+!!)!))!)=",
"/)!*!)!)))%!!%)=",
"/)!!+)!))))##))=",
"/)!)))!)))%!!%)=",
"/)!)))+!!)!))!)=",
"/))))))))))))))=",
"(===============",
"  #%%%%%%%%%%&  ",
"  $&&&&&&&&&&&  ",
"                "};
