/* XPM */
static char * pcx3_xpm[] = {
"16 15 50 1",
".	c #000010",
"#	c None",
"a	c #0F0600",
"b	c #130800",
"c	c #1C0B00",
"d	c #222232",
"e	c #334455",
"f	c #381700",
"g	c #3F3F4F",
"h	c #404040",
"i	c #441100",
"j	c #505050",
"k	c #555565",
"l	c #582400",
"m	c #606060",
"n	c #652900",
"o	c #7799AA",
"p	c #7B3607",
"q	c #82634D",
"r	c #8C4718",
"s	c #8C8C8C",
"t	c #93735E",
"u	c #99AACC",
"v	c #9B5627",
"w	c #9F806A",
"x	c #A78D7B",
"y	c #A7A7B7",
"z	c #AC6738",
"A	c #AFAFAF",
"B	c #BD7849",
"C	c #CCCCEE",
"D	c #CDBAAD",
"E	c #D08B5C",
"F	c #D7D7D7",
"G	c #D9CBC1",
"H	c #DA9566",
"I	c #DC9A6E",
"J	c #EBA677",
"K	c #ECA778",
"L	c #ECC3A7",
"M	c #EEAD81",
"N	c #F2B184",
"O	c #F0F0FF",
"P	c #F3C3A1",
"Q	c #F3B68C",
"R	c #F5F0F0",
"S	c #FEC39A",
"T	c #FFE0D5",
"U	c #FFE2CE",
"V	c #FFFFFF",
"LQJJKKJJJJQQS###",
"EvnfffnprzEJMQS#",
"JzbabbccflpzEIQS",
"LSBblDGCOodilvJN",
"#PSppGRk...grlrJ",
"#LSErHRgd.dgRzlE",
"##PSJHTudeeyRJBJ",
"###SSJNUURRRJJQS",
"smmsxmmmtmqmwQSS",
"mVVAmAVAmVmVjSS#",
"mVhVhVhVhFFFm###",
"mVVAjVhhmmVh####",
"mVhjmVhVhFFFs###",
"mVh#mAVAjVhVj###",
"sjm#smhjsjmjm###"};
