/* XPM */
static char * pdb_xpm[] = {
"16 15 38 1",
" 	c None",
"!	c #000041",
"#	c #101096",
"$	c #2424AA",
"%	c #D7DB59",
"&	c #7D7D41",
"/	c #D2B241",
"(	c #000082",
")	c #3D3D61",
"=	c #BABE31",
"+	c #828282",
"*	c #5D5D31",
"-	c #454524",
"[	c #000000",
"]	c #A2A2A2",
"{	c #3D3D3D",
"}	c #202020",
"<	c #008200",
">	c #181818",
",	c #2DAA2D",
".	c #148E3D",
"|	c #51A6DF",
"@	c #5DBEFF",
"~	c #75BEEF",
"'	c #8EBEDF",
"?	c #616161",
"0	c #51B6FF",
"1	c #49AAF3",
"2	c #357DBE",
"3	c #289AF7",
"4	c #4DB6FF",
"5	c #0C71D7",
"6	c #0C3D82",
"7	c #00618A",
"8	c #144D79",
"9	c #458EBE",
"A	c #3986CE",
"B	c #657DA2",
" !#$%%&%/$#((!  ",
"  !#$)=)$$#(!+  ",
"   &*&*&*&*-[]  ",
"  [[{{}[[[[[[]  ",
" [[{{}[[[[<[+   ",
"   ><,,,,,<[]   ",
"   ><,,,,,<[]   ",
"   ><,,,,,<[]   ",
"   ><,,,,,.|@@~'",
"   >?+++++0@@@12",
"   >?+++++3@4356",
"   7>>>>>>3@4356",
"   >+>+>+>3@4356",
"   [>>>>>>3@4356",
"    [[[[[[8943AB"};
