/* XPM */
static char * pdf_xpm[] = {
"16 15 14 1",
" 	c None",
"!	c #616161",
"#	c #414141",
"$	c #FFFFFF",
"%	c #000000",
"&	c #FF7D7D",
"/	c #FF0000",
"(	c #FFBEBE",
")	c #FF3D3D",
"=	c #202020",
"+	c #C2C2C2",
"*	c #A2A2A2",
"-	c #828282",
"[	c #DFDFDF",
" !!!!!!!!!!!!!# ",
" !$$$$$$$$$$$$% ",
" !$$$&/($$$$$$% ",
" !$$$/$)$$$$$$% ",
" !$$$&()$$$$$$% ",
" !$$$$//$$$$$$% ",
" !$$$$&(/$$$$$% ",
" !$$$$/$$///&$% ",
" !$$$(&(//($)$% ",
" !$$$//&$$&/($% ",
" !$$)(&$$$$!!!= ",
" !$/$)$$$$$!$+# ",
" !$//$$$$$*-+#* ",
" !$$$$$$[+!+#-  ",
" #%%%%%%%%=#*   "};
