/* XPM */
static char * pl_xpm[] = {
"16 15 29 1",
" 	c None",
"!	c #616161",
"#	c #414141",
"$	c #DBEFF3",
"%	c #000000",
"&	c #FFFFFF",
"/	c #CCCCCC",
"(	c #C3C3C3",
")	c #B6B6B6",
"=	c #9B9B9B",
"+	c #D2D2D2",
"*	c #BCBCBC",
"-	c #E5E5E5",
"[	c #AEAEAE",
"]	c #8A8A8A",
"{	c #DFDFDF",
"}	c #6D6D6D",
"<	c #555555",
">	c #3B3B3B",
",	c #595959",
".	c #A2A2A2",
"|	c #4D4D4D",
"@	c #757575",
"~	c #BED2D7",
"'	c #92A6AA",
"?	c #CEE7EB",
"0	c #202020",
"1	c #828282",
"2	c #B2C6CA",
"!!!!!!!!!!!!!!!#",
"!$$$$$$$$$$$$$$%",
"!$#$$$$$$$$$$#$%",
"!&&&&&/()=+&&&&%",
"!&#&&*&&-[]{&#&%",
"!$$$/&&&-[}]$$$%",
"!$#$(&&&+=!<$#$%",
"!&&&*--+=}>,&&&%",
"!&#&.[[=}|>@&#&%",
"!$$$~]}!>>]'$$$%",
"!$#$$?]<,@'$!!!0",
"!&&&&&&&&&&&!&(#",
"!&#&&&&&&&&.1(#.",
"!$$$$$$$$?2!(#1 ",
"#%%%%%%%%%%0#.  "};
