/* XPM */
static char * png_xpm[] = {
"16 15 12 1",
" 	c None",
"!	c #FFFFFF",
"#	c #DFDFDF",
"$	c #AAAAAA",
"%	c #9A9A9A",
"&	c #555555",
"/	c #3D1435",
"(	c #1C0818",
")	c #7D2D69",
"=	c #000000",
"+	c #BE96B2",
"*	c #DFCADB",
"                ",
"  !##########$  ",
"  #%%%%%%%%%%&  ",
"///////////////(",
"/))))))))))))))=",
"/)!!+)!))!)+!!*=",
"/)!)!)!!)!)!)))=",
"/)!!+)!)!!)!)!!=",
"/)!)))!))!)!))!=",
"/)!)))!))!)+!!+=",
"/))))))))))))))=",
"(===============",
"  #%%%%%%%%%%&  ",
"  $&&&&&&&&&&&  ",
"                "};
