/* XPM */
static char * png3_xpm[] = {
"16 15 52 1",
".	c #000010",
"#	c None",
"a	c #0F0600",
"b	c #130800",
"c	c #1C0B00",
"d	c #222232",
"e	c #334455",
"f	c #381700",
"g	c #3F3F4F",
"h	c #400040",
"i	c #441100",
"j	c #500050",
"k	c #555565",
"l	c #582400",
"m	c #602060",
"n	c #652900",
"o	c #7799AA",
"p	c #7B3607",
"q	c #86434C",
"r	c #8C4718",
"s	c #8E4C54",
"t	c #907090",
"u	c #99AACC",
"v	c #9B5627",
"w	c #9C6780",
"x	c #A5636B",
"y	c #A7A7B7",
"z	c #A96B76",
"A	c #AC6738",
"B	c #AE717D",
"C	c #AF8FAF",
"D	c #BD7849",
"E	c #CCCCEE",
"F	c #CDBAAD",
"G	c #D08B5C",
"H	c #D7C7D7",
"I	c #D9CBC1",
"J	c #DA9566",
"K	c #DC9A6E",
"L	c #EBA677",
"M	c #ECA778",
"N	c #ECC3A7",
"O	c #EEAD81",
"P	c #F2B184",
"Q	c #F0F0FF",
"R	c #F3C3A1",
"S	c #F3B68C",
"T	c #F5F0F0",
"U	c #FEC39A",
"V	c #FFE0D5",
"W	c #FFE2CE",
"X	c #FFFFFF",
"NSLLMMLLLLSSU###",
"GvnfffnprAGLOSU#",
"LAbabbccflpAGKSU",
"NUDblFIEQodilvLP",
"#RUppITk...grlrL",
"#NUGrJTgd.dgTAlG",
"##RULJVudeeyTLDL",
"###UULPWWTTTLLSU",
"tmmwBmBxmsqmmzUU",
"mXXCmXjmXjCXXHj#",
"mXmXjXHjXhXhhhj#",
"mXXCjXCCXhXhXXj#",
"mXhjmXhHXhXhhXh#",
"mXh#mXhmXhCXXCj#",
"tjj#tjjtjjtjhj##"};
