/* XPM */
static char * Port2_xpm[] = {
"16 15 14 1",
" 	c None",
"!	c #D7D7D7",
"#	c #FFFFFF",
"$	c #DFDFDF",
"%	c #848484",
"&	c #4D4D4D",
"/	c #EFEFEF",
"(	c #C2C2C2",
")	c #CACACA",
"=	c #969696",
"+	c #A2A2A2",
"*	c #AAAAAA",
"-	c #717171",
"[	c #656565",
"                ",
"                ",
"         !      ",
"        #$$%   $",
"       #$$&  $##",
"    $##/$&($##)=",
"  $#$$$/# =+%==*",
" #/$$$$$&%*+-*  ",
" $/#/$$[%===-   ",
" $%(/#%=====-   ",
" $&%%(=====-%   ",
" $&%&(===-%     ",
"  %%&(=-%       ",
"    %*%         ",
"                "};
