/* XPM */
static char * Port_xpm[] = {
"16 15 11 1",
" 	c None",
"!	c #828282",
"#	c #414141",
"$	c #FFFFFF",
"%	c #DFDFDF",
"&	c #C2C2C2",
"/	c #969696",
"(	c #CECECE",
")	c #9A9A9A",
"=	c #000000",
"+	c #AAAAAA",
"        !       ",
"     !#$%#      ",
"    !$%#$$#     ",
"   !$&&&#$$#    ",
"  !%%&!%&#$$#   ",
"  !$&!%!%&#$%#  ",
"  !%%&!%/(&#$)# ",
"   !$&&/%&&&##  ",
"   !%$&&/(&&)=  ",
"   !%&$&&+&)#=  ",
"   !%&!$&&)#=   ",
"  !$ ###))#=    ",
" !$&=   ===     ",
"!$&=            ",
"%&#             "};
