/* XPM */
static char * PowerButton2_xpm[] = {
"16 15 21 2",
"..	c None",
".#	c #424242",
".a	c #4D4D4D",
".b	c #545454",
".c	c #5A5A5A",
".d	c #626262",
".e	c #6C6C6C",
".f	c #727272",
".g	c #7C7C7C",
".h	c #808080",
".i	c #8A8A8A",
".j	c #919191",
".k	c #9D9D9D",
".l	c #A0A0A0",
".m	c #AAAAAA",
".n	c #B6B6B6",
".o	c #B9B9B9",
".p	c #C3C3C3",
".q	c #C9C9C9",
".r	c #D1D1D1",
".s	c #E0E0E0",
"...........c.#.#.#.c............",
".......b.c.k.p.q.n.i.b.b........",
".....#.j.s.n.l.l.l.m.n.g.#......",
"...b.l.s.l.k.l.k.k.l.l.m.g.a....",
"...c.s.l.l.i.b.#.b.h.l.l.k.b....",
".c.k.n.l.h.b.j.h.j.b.h.l.k.f.c..",
".#.q.l.l.b.j.l.#.l.j.b.l.k.h.#..",
".#.r.l.l.#.l.l.#.k.l.#.l.l.g.#..",
".#.o.l.l.b.j.l.#.l.j.b.l.k.g.#..",
".c.i.m.l.h.b.j.h.j.b.h.l.j.d.c..",
"...b.n.l.l.i.b.#.b.h.l.l.f.a....",
"...b.h.l.l.k.k.k.k.k.l.e.c.a....",
".....#.f.j.k.k.l.k.i.e.c.#......",
".......a.b.e.g.g.f.d.a.a........",
"...........b.#.#.#.b............"};
