/* XPM */
static char * prc_xpm[] = {
"16 15 37 1",
" 	c None",
"!	c #000041",
"#	c #101096",
"$	c #2424AA",
"%	c #D7DB59",
"&	c #7D7D41",
"/	c #D2B241",
"(	c #000082",
")	c #3D3D61",
"=	c #BABE31",
"+	c #828282",
"*	c #5D5D31",
"-	c #454524",
"[	c #000000",
"]	c #A2A2A2",
"{	c #3D3D3D",
"}	c #202020",
"<	c #008200",
">	c #181818",
",	c #2DAA2D",
".	c #BEBE41",
"|	c #96D714",
"@	c #1C1C00",
"~	c #DFDF20",
"'	c #DFDF61",
"?	c #616161",
"0	c #CAEB08",
"1	c #3D3D00",
"2	c #FFFF00",
"3	c #FFFF7D",
"4	c #00618A",
"5	c #8A8A0C",
"6	c #C6C604",
"7	c #FFFFFF",
"8	c #BEBE82",
"9	c #BEBE00",
"A	c #7D7D00",
" !#$%%&%/$#((!  ",
"  !#$)=)$$#(!+  ",
"   &*&*&*&*-[]  ",
"  [[{{}[[[[[[]  ",
" [[{{}[[[[<[+   ",
"   ><,,,,,<[]   ",
"   ><,,,,,<[]   ",
"   ><,,,,,<[.   ",
"   ><,,,,|<@~. '",
"   >?+++++012.2 ",
"   >?+++++?232. ",
"   4>>>>5623732~",
"   >+>+>+>?232.8",
"   [>>>>>>912.2 ",
"    [[[[[A[8~8 '"};
