/* XPM */
static char * Printer_xpm[] = {
"16 15 32 1",
" 	c None",
"!	c #9A9A9A",
"#	c #ACAAAC",
"$	c #A2A2A5",
"%	c #EEEEEE",
"&	c #E7E7E4",
"/	c #CACAC6",
"(	c #F3F3F3",
")	c #EBEBE7",
"=	c #E3E3DF",
"+	c #DFDFDE",
"*	c #FFFFFF",
"-	c #B3B3B3",
"[	c #717173",
"]	c #9A9A96",
"{	c #92928E",
"}	c #D7D7D2",
"<	c #5A5A5B",
">	c #C6C6C6",
",	c #535353",
".	c #BEBABE",
"|	c #CECECE",
"@	c #AAAAA6",
"~	c #696969",
"'	c #424242",
"?	c #BABAB6",
"0	c #797979",
"1	c #4D4D4D",
"2	c #827D82",
"3	c #939393",
"4	c #626262",
"5	c #696965",
"                ",
"      !!!#      ",
"     $%&%/!!!   ",
"    ##%()&=+!   ",
"    !**()&=-#   ",
"    !*(%%&=![!  ",
"   !]{-+%}/[<[[ ",
" })%%%+>-{{<[<, ",
"$.|+%)%%%%%@~,' ",
"$-??#.|+%@0~,1' ",
"<[23$$$!45<1'4  ",
"444<,~23<,''3   ",
"#30[[[~~''4     ",
"    #304'3      ",
"                "};
