/* XPM */
static char * ps_xpm[] = {
"16 15 11 1",
" 	c None",
"!	c #616161",
"#	c #414141",
"$	c #FFFFFF",
"%	c #000000",
"&	c #C2C2C2",
"/	c #F4F4F4",
"(	c #828282",
")	c #202020",
"=	c #A2A2A2",
"+	c #DFDFDF",
" !!!!!!!!!!!!!# ",
" !$$$$$$$$$$$$% ",
" !$$$$$$$$$$$$% ",
" !$$$$$#&%$$$$% ",
" !$&%%%&%/!%&$% ",
" !$%%%&%/&%%%$% ",
" !$%%&%//!%%%$% ",
" !$%%(&%&%%%%$% ",
" !$%%%#&!%%%%$% ",
" !$%%%%!%%%%%$% ",
" !$&%#(%%%%!!!) ",
" !$$$$$$$$$!$&# ",
" !$$$$$$$$=(&#= ",
" !$$$$$$+&!&#(  ",
" #%%%%%%%%)#=   "};
