/* XPM */
static char * r2_xpm[] = {
"16 15 19 1",
".	c #000000",
"#	c #007261",
"a	c #202020",
"b	c #3F9588",
"c	c #404040",
"d	c #4FA096",
"e	c #5DA59A",
"f	c #606060",
"g	c #7FB8B0",
"h	c #808080",
"i	c #97C9C6",
"j	c #A0A0A0",
"k	c #B0C7CA",
"l	c #B2D4CF",
"m	c #C0C0C0",
"n	c #CEE5E8",
"o	c #D8EFF2",
"p	c None",
"q	c #FFFFFF",
"fffffffffffffffc",
"foooooooooooooo.",
"focooooooooooco.",
"fqqqq####bqqqqq.",
"fqcqq##gb#bqqcq.",
"foooo##oo##oooo.",
"focoo##gb#booco.",
"fqqqq#####qqqqq.",
"fqcqq##qe#lqqcq.",
"foooo##oi#doooo.",
"focoo##oo##offfa",
"fqqqqqqqqqqqfqmc",
"fqcqqqqqqqqjhmcj",
"foooooooonkfmchp",
"c..........acjpp"};
