/* XPM */
static char * ra_xpm[] = {
"16 15 25 1",
" 	c None",
"!	c #B2B2B2",
"#	c #A2A2A2",
"$	c #828282",
"%	c #C2C2C2",
"&	c #CDCECD",
"/	c #F3F3F3",
"(	c #FFFFFF",
")	c #DFDFDF",
"=	c #7D7D3D",
"+	c #3D3D1C",
"*	c #BABEBA",
"-	c #65A265",
"[	c #92B292",
"]	c #515151",
"{	c #FFFF00",
"}	c #359235",
"<	c #000000",
">	c #087D08",
",	c #088208",
".	c #BEBE1C",
"|	c #929292",
"@	c #656565",
"~	c #414141",
"'	c #8E8E8E",
"                ",
"   !#$$$$$$#%   ",
"  #$&/((((/&##  ",
" $&()&%==%%&)%$ ",
"#&)&%%=(+*%-[&#]",
"$/&%==({+[-[}%#<",
"$(%%=({{+%>%,%#<",
"$/&%+<=.+[-[}%|<",
"#&)%%%<++*%-[#]@",
" $&%%%%<+%%*|]< ",
"  $~$'###%%$<@  ",
"    @~<<#%$<    ",
"       <#$<     ",
"       <$<      ",
"       <<       "};
