/* XPM */
static char * Readme_xpm[] = {
"16 15 14 1",
" 	c None",
"!	c #616161",
"#	c #414141",
"$	c #FFFFFF",
"%	c #000000",
"&	c #757DB2",
"/	c #495196",
"(	c #D2D2E7",
")	c #A6AACA",
"=	c #202020",
"+	c #C2C2C2",
"*	c #A2A2A2",
"-	c #828282",
"[	c #DFDFDF",
" !!!!!!!!!!!!!# ",
" !$$$$$$$$$$$$% ",
" !$$$$&//&$$$$% ",
" !$$(//$(//($$% ",
" !$$////////$$% ",
" !$&//)$(///&$% ",
" !$////$(////$% ",
" !$////$(////$% ",
" !$&///$(///&$% ",
" !$$//)$$)//$$% ",
" !$$(//////!!!= ",
" !$$$$&//&$!$+# ",
" !$$$$$$$$*-+#* ",
" !$$$$$$[+!+#-  ",
" #%%%%%%%%=#*   "};
