/* XPM */
static char * rom_xpm[] = {
"16 15 10 1",
" 	c None",
"!	c #828282",
"#	c #414141",
"$	c #000000",
"%	c #616161",
"&	c #F3F3F3",
"/	c #DFDFDF",
"(	c #A2A2A2",
")	c #CECECE",
"=	c #AEAEAE",
"                ",
"       !        ",
"      ###!      ",
"     ######!    ",
"    #########!  ",
"   ##########$  ",
"  ##########$!  ",
" ###$!%####$&!  ",
" !%$##!###$!/(  ",
" !!!#%!##$&!)(  ",
"  =!!!%#$!/()   ",
"  / (!!$&!)(    ",
"      ($/()     ",
"        )(      ",
"        )       "};
