/* XPM */
static char * rpm2_xpm[] = {
"16 15 14 1",
" 	c None",
".	c #000000",
"#	c #2C0606",
"a	c #404040",
"b	c #555555",
"c	c #580C0C",
"d	c #808080",
"e	c #841212",
"f	c #AAAAAA",
"g	c #B01818",
"h	c #D5D5D5",
"i	c #EEEEEE",
"j	c #F0F0F0",
"k	c #FEFEFE",
"    da...ad     ",
"   .........    ",
"  ..cgeegc...   ",
" ...eeggg#c...  ",
"d...g#cegge...d ",
"a.eecgggggg#..a ",
"..gg#.cgggegc.. ",
"..cgggeeggggg.. ",
"....eggggggge.. ",
"a..kd.#cegge..a ",
"d..bkkbbbbb...d ",
" akkbkkkkkb...  ",
"  kkkkkbff...   ",
"   jkkkkk.fj    ",
"    hikkkih     "};
