/* XPM */
static char * sh_xpm[] = {
"16 15 18 1",
" 	c None",
"!	c #616161",
"#	c #414141",
"$	c #FFFFFF",
"%	c #000000",
"&	c #BED7D7",
"/	c #3D8486",
"(	c #3D6D6D",
")	c #7DAEAE",
"=	c #002D31",
"+	c #005959",
"*	c #2D7175",
"-	c #004145",
"[	c #202020",
"]	c #C2C2C2",
"{	c #A2A2A2",
"}	c #828282",
"<	c #DFDFDF",
" !!!!!!!!!!!!!# ",
" !$$$$$$$$$$$$% ",
" !$$$$$&/$$$$$% ",
" !$$&($)=$&/$$% ",
" !$$/+()=)+=$$% ",
" !$$$/+*-+=$$$% ",
" !$&))*++*))/$% ",
" !$/==-++-===$% ",
" !$$$)+*-+-$$$% ",
" !$$&+=)=/+-$$% ",
" !$$/=$)=$)!!![ ",
" !$$$$$/=$$!$]# ",
" !$$$$$$$${}]#{ ",
" !$$$$$$<]!]#}  ",
" #%%%%%%%%[#{   "};
