/* XPM */
static char * sid2_xpm[] = {
"16 15 20 1",
".	c #000000",
"#	c #0000C6",
"a	c #1C1FCC",
"b	c #2121CD",
"c	c #404040",
"d	c #5252D7",
"e	c #5353D8",
"f	c #7B7BE2",
"g	c None",
"h	c #808080",
"i	c #8585E2",
"j	c #8B8BE4",
"k	c #9898E8",
"l	c #DFDFDF",
"m	c #E3E3E3",
"n	c #EBEBEB",
"o	c #F3F3F3",
"p	c #FCFCFC",
"q	c #FF1F1F",
"r	c #FF8C8C",
"gggggggggggggggg",
"gggggggggggngggg",
"gmoppolggggnmggg",
"npjb#ipggggn.ogg",
"pj####pppomn..og",
"pe#kpjf###nn.hcm",
"p##pgpf##pgo.pnn",
"p##pgprqqpgo.ogg",
"pd#kpkrqqqno.ogg",
"pj####pppoop.ngg",
"npia#ipggnc..ngg",
"gmoppomggm..cmgg",
"ggggggggggmnmggg",
"gggggggggggggggg",
"gggggggggggggggg"};
