/* XPM */
static char * SoundCard2_xpm[] = {
"16 15 37 1",
".	c #000000",
"#	c None",
"a	c #002000",
"b	c #004100",
"c	c #006100",
"d	c #008200",
"e	c #319231",
"f	c #3F3F3F",
"g	c #404040",
"h	c #419641",
"i	c #4D9A4D",
"j	c #616161",
"k	c #618261",
"l	c #65A265",
"m	c #7F7F7F",
"n	c #828282",
"o	c #919191",
"p	c #9C9C9C",
"q	c #A2A2A2",
"r	c #A6B6A6",
"s	c #B2B2B2",
"t	c #BCBCBC",
"u	c #C1C1C1",
"v	c #C6CA79",
"w	c #C8C8C8",
"x	c #CDDACD",
"y	c #D6D6D6",
"z	c #D1E9D1",
"A	c #D5D89C",
"B	c #DCDCDC",
"C	c #E3E3E3",
"D	c #E4ECE4",
"E	c #EBF5EB",
"F	c #EDEDED",
"G	c #F5F5F5",
"H	c #F6F6E8",
"I	c #FCFDFC",
"###wBFIGC#######",
"##BGpjf.G#######",
"##G.gnt.Dk######",
"##G.tmf.Gcbk####",
"##I.gno.Erhcbk##",
"##D.IGI.FeridIbk",
"##I.IGI.Eu.lIynb",
"yII.Iw..I..Iy.yj",
"Gy..Iq.ny.Iy.yj#",
"Gs.nBHFzdIyyyj##",
"yGGxAjvuIy.yj###",
"####bvaIy.yj####",
"#####buIyyj#####",
"######Iynj######",
"#######n########"};
