/* XPM */
static char * Speaker2_xpm[] = {
"16 15 54 1",
" 	c None",
"!	c #595959",
"#	c #867D71",
"$	c #716955",
"%	c #CBCBCB",
"&	c #D7D7D7",
"/	c #DFDFDF",
"(	c #6D6D6D",
")	c #000000",
"=	c #9A968E",
"+	c #717171",
"*	c #A2A2A2",
"-	c #828282",
"[	c #616161",
"]	c #313131",
"{	c #AEAAA2",
"}	c #8A8A86",
"<	c #796949",
">	c #7D7D7D",
",	c #756D69",
".	c #AAA296",
"|	c #554D49",
"@	c #B6AEAA",
"~	c #939393",
"'	c #6D6961",
"?	c #D7CEC6",
"0	c #715D3D",
"1	c #736965",
"2	c #C2BEBA",
"3	c #EBE3DF",
"4	c #F7EBE3",
"5	c #FFFFFB",
"6	c #BEBEBE",
"7	c #B6AAA6",
"8	c #B2A69E",
"9	c #C2B2A6",
"A	c #DBD7CE",
"B	c #B6B2AE",
"C	c #414141",
"D	c #797171",
"E	c #8A827D",
"F	c #7D7975",
"G	c #4D4D4D",
"H	c #655D5D",
"I	c #A29A96",
"J	c #71716D",
"K	c #9A9A9A",
"L	c #181818",
"M	c #615D55",
"N	c #C2C2C2",
"O	c #555149",
"P	c #554939",
"Q	c #202020",
"R	c #2D2820",
"                ",
"      !!        ",
"     #$!%&////()",
"    #=#+*-[[])])",
"{}}< )=>%&/)(/%)",
",..|))@~*-[)[[-)",
"'??0)12~%&/)//%)",
"(33+456~*-[)[[-)",
"17809AB>%&/)/C))",
"DEFG)HIJ*-[)[))C",
"KGGL )FMNC))//%N",
"    G OP*))Q[[-*",
"     GRR%&////&%",
"      ))        ",
"                "};
