/* XPM */
static char * Speaker_xpm[] = {
"16 15 52 1",
" 	c None",
"!	c #595959",
"#	c #867D71",
"$	c #716955",
"%	c #CECECE",
"&	c #ACACAC",
"/	c #9A968E",
"(	c #717171",
")	c #C4C4C4",
"=	c #BCBCBC",
"+	c #B2B2B2",
"*	c #AEAAA2",
"-	c #8A8A86",
"[	c #796949",
"]	c #000000",
"{	c #7D7D7D",
"}	c #A6A6A6",
"<	c #D4D4D4",
">	c #939393",
",	c #756D69",
".	c #AAA296",
"|	c #554D49",
"@	c #B6AEAA",
"~	c #6D6961",
"'	c #D7CEC6",
"?	c #715D3D",
"0	c #736965",
"1	c #C2BEBA",
"2	c #848484",
"3	c #6D6D6D",
"4	c #EBE3DF",
"5	c #F7EBE3",
"6	c #FFFFFB",
"7	c #DFDFDF",
"8	c #B6AAA6",
"9	c #B2A69E",
"A	c #C2B2A6",
"B	c #DBD7CE",
"C	c #B6B2AE",
"D	c #797171",
"E	c #8A827D",
"F	c #7D7975",
"G	c #4D4D4D",
"H	c #655D5D",
"I	c #A29A96",
"J	c #71716D",
"K	c #9A9A9A",
"L	c #181818",
"M	c #615D55",
"N	c #555149",
"O	c #554939",
"P	c #2D2820",
"                ",
"      !!        ",
"     #$!   %&   ",
"    #/#(   )=+  ",
"*--[ ]/{ %} <>= ",
",..|]]@> <&&<}} ",
"~''?]01>  )2))> ",
"344(56=>  72 72 ",
"089?ABC{  )2))> ",
"DEFG]HIJ %&&<}} ",
"KGGL ]FM %} <>= ",
"    G NO   )=+  ",
"     GPP   %&   ",
"      ]]        ",
"                "};
