/* XPM */
static char * Tape_xpm[] = {
"16 15 13 1",
" 	c None",
"!	c #616161",
"#	c #414141",
"$	c #B2B2C2",
"%	c #515161",
"&	c #000000",
"/	c #202020",
"(	c #313131",
")	c #49494D",
"=	c #A2A2AE",
"+	c #79798A",
"*	c #656579",
"-	c #51515D",
"                ",
"                ",
"!!!!!!!!!!!!!!!#",
"!$%$####%%#####&",
"#&&&&&&&&&&&&&&&",
"!#!!!!!!!!!!!!#&",
"!/#//////////#/&",
"!/(&)=)&/+=)*)/&",
"!//&=&=&&=&=*-/&",
"!/(&)=)&/+=+*)/&",
"!/#!!!!!!!!!!#/&",
"!/############/&",
"#&&&&&&&&&&&&&&&",
"                ",
"                "};
