/* XPM */
static char * targa3_xpm[] = {
"16 15 55 1",
".	c #000010",
"#	c None",
"a	c #004040",
"b	c #005050",
"c	c #006060",
"d	c #0F0600",
"e	c #130800",
"f	c #1C0B00",
"g	c #222232",
"h	c #306060",
"i	c #334455",
"j	c #381700",
"k	c #3F3F4F",
"l	c #3F8787",
"m	c #441100",
"n	c #555565",
"o	c #56654D",
"p	c #582400",
"q	c #5C8F8F",
"r	c #5F9090",
"s	c #609090",
"t	c #652900",
"u	c #65765F",
"v	c #76846D",
"w	c #7799AA",
"x	c #7B3607",
"y	c #7E927E",
"z	c #7FAFAF",
"A	c #7FBFBF",
"B	c #8C4718",
"C	c #99AACC",
"D	c #9B5627",
"E	c #A7A7B7",
"F	c #AC6738",
"G	c #BD7849",
"H	c #BFD7D7",
"I	c #CCCCEE",
"J	c #CDBAAD",
"K	c #D08B5C",
"L	c #D9CBC1",
"M	c #DA9566",
"N	c #DC9A6E",
"O	c #EBA677",
"P	c #ECA778",
"Q	c #ECC3A7",
"R	c #EEAD81",
"S	c #F2B184",
"T	c #F0F0FF",
"U	c #F3C3A1",
"V	c #F3B68C",
"W	c #F5F0F0",
"X	c #FEC39A",
"Y	c #FFE0D5",
"Z	c #FFE2CE",
"0	c #FFFFFF",
"QVOOPPOOOOVVX###",
"KDtjjjtxBFKORVX#",
"OFedeeffjpxFKNVX",
"QXGepJLITwgmpDOS",
"#UXxxLWn...kBpBO",
"#QXKBMWkg.gkWFpK",
"##UXOMYCgiiEWOGO",
"###XXOSZZWWWOOVX",
"scccyyccuGocvVXX",
"c000bz00Hbl0lyX#",
"sc0ac0aabcHAHh##",
"#c0ac0a00b0a0b##",
"#c0ac0ab0a000a##",
"#c0arz00zb0a0a##",
"#sbh#sbahqbhbh##"};
