/* XPM */
static char * targa_xpm[] = {
"16 15 13 1",
" 	c None",
"!	c #FFFFFF",
"#	c #DFDFDF",
"$	c #AAAAAA",
"%	c #9A9A9A",
"&	c #555555",
"/	c #003D3D",
"(	c #001C1C",
")	c #007D7D",
"=	c #000000",
"+	c #7DBEBE",
"*	c #BEDFDF",
"-	c #3D9E9E",
"                ",
"  !##########$  ",
"  #%%%%%%%%%%&  ",
"///////////////(",
"/))))))))))))))=",
"/)!!!)+!!*)-!-)=",
"/))!))!))))*+*)=",
"/))!))!)!!)!)!)=",
"/))!))!))!)!!!)=",
"/))!))+!!+)!)!)=",
"/))))))))))))))=",
"(===============",
"  #%%%%%%%%%%&  ",
"  $&&&&&&&&&&&  ",
"                "};
