/* XPM */
static char * tex2_xpm[] = {
"16 15 11 1",
" 	c None",
".	c #000000",
"#	c #202020",
"a	c #414141",
"b	c #606060",
"c	c #808080",
"d	c #A0A0A0",
"e	c #C0C0C0",
"f	c #DDDDDD",
"g	c #F7F7F7",
"h	c #FFFFFF",
" bbbbbbbbbbbbba ",
" bhhhhhhhhhhhh. ",
" bhhhhhhhhhhhh. ",
" bhhhhhhhhhhhh. ",
" bdbbbdhhdbhbd. ",
" beh.hehgg.fch. ",
" bhh.ebbchf.fh. ",
" bhh.h.hfhcf.f. ",
" bhebf.chdbhbd. ",
" bhhhh.hfhhhhh. ",
" bhhhebbchhbbb# ",
" bhhhhhhhhhbhea ",
" bhhhhhhhhdcead ",
" bhhhhhhfebeac  ",
" a........#ad   "};
