/* XPM */
static char * tif3_xpm[] = {
"16 15 50 1",
".	c #000010",
"#	c #000040",
"a	c #000060",
"b	c #000080",
"c	c None",
"d	c #0F0600",
"e	c #130800",
"f	c #1C0B00",
"g	c #222232",
"h	c #303078",
"i	c #334455",
"j	c #381700",
"k	c #3F3F4F",
"l	c #441100",
"m	c #4E4E9A",
"n	c #555565",
"o	c #57345C",
"p	c #582400",
"q	c #6161A0",
"r	c #652900",
"s	c #7799AA",
"t	c #7B3607",
"u	c #7E628E",
"v	c #80628D",
"w	c #8C4718",
"x	c #8F8FBF",
"y	c #99AACC",
"z	c #9B5627",
"A	c #A7A7B7",
"B	c #AC6738",
"C	c #BD7849",
"D	c #CCCCEE",
"E	c #CDBAAD",
"F	c #D08B5C",
"G	c #D9CBC1",
"H	c #DA9566",
"I	c #DC9A6E",
"J	c #EBA677",
"K	c #ECA778",
"L	c #ECC3A7",
"M	c #EEAD81",
"N	c #F2B184",
"O	c #F0F0FF",
"P	c #F3C3A1",
"Q	c #F3B68C",
"R	c #F5F0F0",
"S	c #FEC39A",
"T	c #FFE0D5",
"U	c #FFE2CE",
"V	c #FFFFFF",
"LQJJKKJJJJQQSccc",
"FzrjjjrtwBFJMQSc",
"JBedeeffjptBFIQS",
"LSCepEGDOsglpzJN",
"cPSttGRn...kwpwJ",
"cLSFwHRkg.gkRBpF",
"ccPSJHTygiiARJCJ",
"cccSSJNUURRRJJQS",
"mbbbubvbbbobbbvS",
"bVVVaVaVVVaVVVac",
"qbV#aV#V##aV##hc",
"cbV#bV#VVxbVVxqc",
"cbV#bV#V#hbV#hcc",
"cbV#bV#V#cbV#ccc",
"cqahqahahcqahccc"};
