/* XPM */
static char * tiff_xpm[] = {
"16 15 10 1",
" 	c None",
"!	c #FFFFFF",
"#	c #DFDFDF",
"$	c #AAAAAA",
"%	c #9A9A9A",
"&	c #555555",
"/	c #00007D",
"(	c #00003D",
")	c #0000FF",
"=	c #000000",
"                ",
"  !##########$  ",
"  #%%%%%%%%%%&  ",
"///////////////(",
"/))))))))))))))=",
"/!!!)!)!!!)!!!)=",
"/)!))!)!)))!)))=",
"/)!))!)!!))!!))=",
"/)!))!)!)))!)))=",
"/)!))!)!)))!)))=",
"/))))))))))))))=",
"(===============",
"  #%%%%%%%%%%&  ",
"  $&&&&&&&&&&&  ",
"                "};
