/* XPM */
static char * txt_xpm[] = {
"16 15 11 1",
" 	c None",
"!	c #616161",
"#	c #414141",
"$	c #FFFFFF",
"%	c #000000",
"&	c #828282",
"/	c #AAAAAA",
"(	c #C2C2C2",
")	c #202020",
"=	c #A2A2A2",
"+	c #DFDFDF",
" !!!!!!!!!!!!!# ",
" !$$$$$$$$$$$$% ",
" !$$$$$$$$$$$$% ",
" !$&/&(&//(/($% ",
" !$$$$$$$$$$$$% ",
" !$&/&/&//&/($% ",
" !$$$$$$$$$$$$% ",
" !$/&/(&/&//($% ",
" !$$$$$$$$$$$$% ",
" !$/&&///&/($$% ",
" !$$$$$$$$$!!!) ",
" !$&(/&/&($!$(# ",
" !$$$$$$$$=!(#= ",
" !$$$$$$+(!(#&  ",
" #%%%%%%%%)#=   "};
