/* XPM */
static char * VRML2_xpm[] = {
"16 15 29 1",
".	c #000000",
"#	c None",
"a	c #002915",
"b	c #003118",
"c	c #003040",
"d	c #003D1B",
"e	c #00421E",
"f	c #004820",
"g	c #005470",
"h	c #007135",
"i	c #0078A0",
"j	c #008840",
"k	c #0091BC",
"l	c #00AAD8",
"m	c #1E9154",
"n	c #202020",
"o	c #2D965B",
"p	c #300008",
"q	c #303030",
"r	c #4D9E73",
"s	c #4EA075",
"t	c #500010",
"u	c #50A075",
"v	c #6D6D6D",
"w	c #74AA8C",
"x	c #7DAC92",
"y	c #80AD94",
"z	c #919191",
"A	c #A00020",
"################",
"######zn.nz#####",
"#####vqdfhqz####",
"#####nafhjhn####",
"#####.befhgll###",
"##AAA.abefcikll#",
"##pAAA.abacgiik#",
"##ppAAA..nzciirj",
"#jppttt####cg#jj",
"sjppttt######ujw",
"jj#pttt#####rjw#",
"jjsy######wjmw##",
"sjj#uy##yjjo####",
"#j###ujjmx######",
"################"};
