/* XPM */
static char * wav_xpm[] = {
"16 15 25 1",
" 	c None",
"!	c #D4D5D4",
"#	c #DEDEDE",
"$	c #FFFFFF",
"%	c #000000",
"&	c #CECECE",
"/	c #EBEBFF",
"(	c #E7E7E7",
")	c #C2BEFF",
"=	c #2D28A6",
"+	c #E7F3E7",
"*	c #9692FF",
"-	c #8E8AFF",
"[	c #D7D2FF",
"]	c #837DFC",
"{	c #5B53D4",
"}	c #8A82FF",
"<	c #514BCA",
">	c #5D59D7",
",	c #7D75F7",
".	c #4D45C6",
"|	c #8682FF",
"@	c #AEAAFF",
"~	c #F7F7F7",
"'	c #C6C6C6",
"       !        ",
"      #$#       ",
"     #$%$!      ",
"    !$$%$#   &  ",
"   !$%/%$$(!#$# ",
"  !$$%)=)%$$$%$!",
"($$%+=*=-%[%[=$(",
"$]+{}{]{]<]<]>/$",
"==%,.}<}<|.}<}]=",
"$${/%[=*=@%[=[]$",
"!#($%$%)=[$/%$$!",
"  &!$$%+%$~$%$! ",
"    !($$%$##$!  ",
"     '!$%$! &   ",
"       !$!      "};
