/* XPM */
static char * Windows_xpm[] = {
"16 15 34 1",
" 	c None",
"!	c #828282",
"#	c #414141",
"$	c #AAAAAA",
"%	c #C6A29A",
"&	c #D2614D",
"/	c #000000",
"(	c #202020",
")	c #141414",
"=	c #CA8275",
"+	c #D74128",
"*	c #3D2D28",
"-	c #411C14",
"[	c #2D6520",
"]	c #8E2D1C",
"{	c #69B255",
"}	c #59AA45",
"<	c #9EAEBE",
">	c #20351C",
",	c #598ABE",
".	c #7D9EBE",
"|	c #3979BE",
"@	c #283139",
"~	c #182839",
"'	c #284D75",
"?	c #2D5520",
"0	c #3D7131",
"1	c #3975B6",
"2	c #49411C",
"3	c #A68E31",
"4	c #7D6920",
"5	c #51657D",
"6	c #FFD745",
"7	c #555555",
"                ",
"                ",
"  !!            ",
"   !#!$         ",
"  %%&!#/#()#!$  ",
" !!$=%+*-++-[/  ",
"  !#!+=/]++/{}/ ",
"  < !/#/(-]>}}/ ",
"!! ,.|@~|'//?0# ",
" !#<|./'1'234>! ",
"  !/|5/~'~366/  ",
"    !/#///363#  ",
"        $!7/2!  ",
"           !/   ",
"                "};
