/* XPM */
static char * xbm_xpm[] = {
"16 15 9 1",
" 	c None",
"!	c #FFFFFF",
"#	c #DFDFDF",
"$	c #AAAAAA",
"%	c #9A9A9A",
"&	c #555555",
"/	c #000000",
"(	c #BEBEBE",
")	c #3D3D3D",
"                ",
"  !##########$  ",
"  #%%%%%%%%%%&  ",
"////////////////",
"////////////////",
"/!//!/!!(/!///!/",
"/)!!)/!/!/!!/!!/",
"//((//!!(/!)!)!/",
"/)!!)/!/!/!/)/!/",
"/!//!/!!(/!///!/",
"////////////////",
"////////////////",
"  #%%%%%%%%%%&  ",
"  $&&&&&&&&&&&  ",
"                "};
