/* XPM */
static char * xbm3_xpm[] = {
"16 15 52 1",
".	c None",
"#	c #000010",
"a	c #0F0600",
"b	c #101010",
"c	c #130800",
"d	c #1C0B00",
"e	c #202020",
"f	c #222232",
"g	c #334455",
"h	c #381700",
"i	c #3F3F4F",
"j	c #441100",
"k	c #4B4B4B",
"l	c #555565",
"m	c #582400",
"n	c #5D3F2A",
"o	c #652900",
"p	c #666666",
"q	c #6A6663",
"r	c #6D4F3A",
"s	c #7799AA",
"t	c #795A46",
"u	c #7B3607",
"v	c #806755",
"w	c #808080",
"x	c #8C4718",
"y	c #99AACC",
"z	c #9B5627",
"A	c #A7A7B7",
"B	c #AC6738",
"C	c #BD7849",
"D	c #BFBFBF",
"E	c #C0C0C0",
"F	c #CCCCEE",
"G	c #CDBAAD",
"H	c #D08B5C",
"I	c #D9CBC1",
"J	c #DA9566",
"K	c #DC9A6E",
"L	c #EBA677",
"M	c #ECA778",
"N	c #ECC3A7",
"O	c #EEAD81",
"P	c #F2B184",
"Q	c #F0F0FF",
"R	c #F3C3A1",
"S	c #F3B68C",
"T	c #F5F0F0",
"U	c #FEC39A",
"V	c #FFE0D5",
"W	c #FFE2CE",
"X	c #FFFFFF",
"NSLLMMLLLLSSU...",
"HzohhhouxBHLOSU.",
"LBcaccddhmuBHKSU",
"NUCcmGIFQsfjmzLP",
".RUuuITl###ixmxL",
".NUHxJTif#fiTBmH",
"..RULJVyfggATLCL",
"...UULPWWTTTLLSU",
"peqeveetrenCtevU",
"eXeXbXXDeXbveXb.",
"pEEEbXbXbXXbXXb.",
".eXbeXXDeXwXwXb.",
"pEEEeXbXbXbweXb.",
"eXbXbXXDeXbkeXb.",
"pbkbkbbkpbk.pbk."};
