/* XPM */
static char * xcf_xpm[] = {
"16 15 83 2",
"#h	c #5D5D5D",
"OD	c None",
".g	c #6D6955",
"#J	c #55534B",
"#i	c #75715D",
".5	c #433B2A",
"#A	c #5A5A52",
".3	c #C6C6C6",
"#F	c #494333",
".x	c #867965",
".Y	c #737472",
".w	c #9A8E79",
"#w	c #555243",
".F	c #595545",
"#I	c #181812",
".o	c #625D49",
"#X	c #454541",
".j	c #797973",
".C	c #696553",
"#x	c #312D23",
".7	c #6C6A5C",
"#n	c #716B5B",
".s	c #2A2822",
"#R	c #737365",
".b	c #828282",
"#O	c #4B493A",
"#K	c #51493D",
"#G	c #867D6B",
".R	c #E3E3E3",
"#k	c #E7EBEB",
".2	c #3D3928",
".Q	c #8E9292",
".N	c #929292",
"#B	c #B2B2A6",
".d	c #7D827D",
".6	c #201C18",
".W	c #A4A4A4",
".O	c #282420",
"#D	c #515151",
".r	c #9E968E",
"#.	c #45453D",
"#q	c #B4B4B4",
"#U	c #49453D",
".G	c #929282",
".B	c #616161",
"#M	c #413528",
".X	c #696969",
".m	c #827561",
"#l	c #A2A292",
".E	c #CACACA",
"#c	c #8A8A75",
"#S	c #D4D4D4",
".J	c #797979",
"#V	c #C2BEB6",
".n	c #202020",
"#e	c #3B3B33",
".z	c #5D5949",
".9	c #73736B",
"#W	c #656151",
"#p	c #201C14",
".V	c #28241C",
"#d	c #4D514D",
"#j	c #ACAAA6",
".v	c #A2968A",
".S	c #DFDFDF",
".M	c #D2CED2",
".u	c #554D41",
".T	c #8C8E8E",
".H	c #353535",
".y	c #393535",
".p	c #6B6B63",
".1	c #595549",
"#t	c #3D3D3D",
"#o	c #AEA28E",
".L	c #9E9E9E",
"#Y	c #8E8A82",
"#Z	c #20201C",
".t	c #312D28",
".A	c #9A9279",
"#y	c #4D4D4D",
"#Q	c #96928A",
".4	c #AAAEAE",
"#L	c #65614D",
"ODODOD#oODODODODODODODODODOD.L#R",
"ODODOD#o#Q.QODODODODODODOD.4.9.g",
"ODODOD#j.A.j.TODODODODOD#q#R.C.o",
"ODODODOD#o#G.p.YODODODOD#n.C.z#A",
"ODODODOD#l.w.x#c.G.9.7.C#L.o.F.7",
"OD.Y.TOD#q.S#V.E#k#B#n#w#K#O#O.p",
".X.N#D.Y#S.H#S.R.H.3.7#O.5.5#x.j",
".B.N#D.Y.L.v#j.T.M#j.o#F.5#x#I.N",
"#t#t#h.C#i.m#G.r#Y.7#w.5#M.6#Z.W",
".J#d.9#w.o.C.C#W.o#e#A.2#x#I.yOD",
"OD.d.1#F#O#w.u#F#I#J#O#x.V.O#yOD",
"ODOD.b.t#p.s.6#I#A#.#x.V.s.B.WOD",
"ODODOD.W.b#U#J#X.t.t.n#e#y.bODOD",
"ODODODODODOD.L.J#D#h#h.b.WODODOD",
"ODODODODODODODODODODODODODODODOD"};
