/* XPM */
static char * xpm_xpm[] = {
"16 15 13 1",
".	c None",
"k	c #FBDBBE",
"f	c #391C00",
"j	c #EB963D",
"e	c #713900",
"c	c #9A9A9A",
"b	c #AAAAAA",
"h	c #000000",
"g	c #E77100",
"i	c #F3BA7D",
"a	c #DFDFDF",
"#	c #FFFFFF",
"d	c #555555",
"................",
"..#aaaaaaaaaab..",
"..accccccccccd..",
"eeeeeeeeeeeeeeef",
"eggggggggggggggh",
"e#gg#g##ig#ggg#h",
"ej##jg#g#g##g##h",
"egkkgg##ig#j#j#h",
"ej##jg#ggg#gjg#h",
"e#gg#g#ggg#ggg#h",
"eggggggggggggggh",
"fhhhhhhhhhhhhhhh",
"..accccccccccd..",
"..bddddddddddd..",
"................"};
