/* XPM */
static char * xpm3_xpm[] = {
"16 15 54 1",
".	c #000010",
"#	c None",
"a	c #0F0600",
"b	c #130800",
"c	c #1C0B00",
"d	c #222232",
"e	c #334455",
"f	c #381700",
"g	c #3F3F4F",
"h	c #441100",
"i	c #542A00",
"j	c #555565",
"k	c #582400",
"l	c #652900",
"m	c #7799AA",
"n	c #7B3607",
"o	c #7E5F3F",
"p	c #803F00",
"q	c #8C4718",
"r	c #99AACC",
"s	c #9B5627",
"t	c #A7A7B7",
"u	c #AA5500",
"v	c #AB5F21",
"w	c #AC6738",
"x	c #B38251",
"y	c #B7824F",
"z	c #BA6C27",
"A	c #BD7849",
"B	c #C57732",
"C	c #CC8341",
"D	c #CCCCEE",
"E	c #CDBAAD",
"F	c #D08446",
"G	c #D08B5C",
"H	c #D4AA7F",
"I	c #D9CBC1",
"J	c #DA9566",
"K	c #DB955A",
"L	c #DC9A6E",
"M	c #E9D4BF",
"N	c #EBA677",
"O	c #ECA778",
"P	c #ECC3A7",
"Q	c #EEAD81",
"R	c #F2B184",
"S	c #F0F0FF",
"T	c #F3C3A1",
"U	c #F3B68C",
"V	c #F5F0F0",
"W	c #FEC39A",
"X	c #FFE0D5",
"Y	c #FFE2CE",
"Z	c #FFFFFF",
"PUNNOONNNNUUW###",
"GslffflnqwGNQUW#",
"NwbabbccfknwGLUW",
"PWAbkEIDSmdhksNR",
"#TWnnIVj...gqkqN",
"#PWGqJVgd.dgVwkG",
"##TWNJXrdeetVNAN",
"###WWNRYYVVVNNUW",
"xuyuCuuBzuvAFuCW",
"uZuZpZZHuZpKpZp#",
"xMMMpZiZiZZpZZi#",
"#uZiuZZHpZHZHZi#",
"xMMMuZipuZiMpZi#",
"uZiZpZi#uZipuZi#",
"xpopopo#xpo#xpo#"};
